<?xml version="1.0" standalone="no"?>
<!DOCTYPE svg PUBLIC "-//W3C//DTD SVG 1.1//EN" "http://www.w3.org/Graphics/SVG/1.1/DTD/svg11.dtd" >
<svg xmlns="http://www.w3.org/2000/svg">
<metadata></metadata>
<defs>
<font id="clarendonurwoblique" horiz-adv-x="1271" vert-adv-y="2048" >
<font-face units-per-em="2048" ascent="1610" descent="-438" />
<missing-glyph horiz-adv-x="512" />
<glyph horiz-adv-x="2048" vert-adv-y="0" />
<glyph horiz-adv-x="2048" vert-adv-y="0" />
<glyph unicode="&#xd;" horiz-adv-x="2048" vert-adv-y="0" />
<glyph unicode=" " horiz-adv-x="512" vert-adv-y="2457" />
<glyph unicode="!" horiz-adv-x="651" vert-adv-y="2457" d="M121 88q0 45 24 84q18 30 46 51q57 44 122 44q58 0 93 -44q24 -31 24 -76q0 -52 -35 -101q-59 -81 -155 -81q-60 0 -94 44q-25 32 -25 79zM270 389q32 223 67 585q18 187 25.5 237t21.5 86q44 109 171 109q122 0 122 -101q0 -48 -29 -141q-7 -24 -64 -190 q-112 -328 -188 -585h-126z" />
<glyph unicode="&#x22;" horiz-adv-x="739" vert-adv-y="2457" d="M141 817l77 548h245l-157 -548h-165zM489 817l78 548h245l-157 -548h-166z" />
<glyph unicode="#" vert-adv-y="2457" d="M-16 392l72 199h215l78 210h-213l72 199h213l134 365h225l-137 -365h215l136 365h228l-136 -365h211l-72 -199h-212l-77 -210h214l-72 -199h-215l-145 -392h-233l149 392h-213l-146 -392h-222l146 392h-215zM496 591h212l77 210h-213z" />
<glyph unicode="$" vert-adv-y="2457" d="M18 261q0 87 48 148q57 72 148 72q67 0 103 -43q19 -23 19 -56q0 -61 -45 -106q-28 -29 -61 -37q-24 -6 -65 -6q65 -66 123 -84q46 -13 144 -20l81 379q-144 44 -192 66q-163 76 -163 230q0 161 143 288q81 73 183 107q61 21 184 39l33 156h137l-33 -156q129 -13 186 -36 q92 -37 138 -116q30 -50 30 -103q0 -62 -40 -115q-56 -74 -141 -74q-73 0 -105 47q-15 22 -15 50q0 55 45 96q38 34 114 40q-60 54 -110 68q-41 12 -129 16l-78 -366q174 -40 237 -70q164 -76 164 -232q0 -95 -50 -185q-70 -128 -231 -200q-93 -41 -279 -60l-45 -211h-137 l45 212q-126 10 -191 33q-195 70 -195 229zM403 903q0 -54 44 -84q35 -24 122 -45l71 335q-79 -13 -117 -32q-120 -58 -120 -174zM570 133q91 5 138 23q147 55 147 184q0 60 -53 91q-44 26 -158 50z" />
<glyph unicode="%" horiz-adv-x="1963" vert-adv-y="2457" d="M93 782q0 102 42 199q62 144 200 227q110 66 243 66q162 0 249 -103q66 -77 66 -190q0 -201 -138 -343q-144 -149 -346 -149q-164 0 -251 103q-65 77 -65 190zM317 750q0 -131 123 -131q107 0 165 109q25 45 45 129q21 91 21 160q0 63 -34 97q-32 31 -86 31 q-109 0 -167 -109q-25 -49 -46 -130q-21 -86 -21 -156zM362 -35l1042 1309h164l-1042 -1309h-164zM1037 258q0 101 42 199q62 143 200 226q110 66 242 66q163 0 250 -103q66 -77 66 -189q0 -201 -137 -343q-144 -149 -347 -149q-164 0 -250 102q-66 78 -66 191zM1260 224 q0 -130 122 -130q107 0 166 108q25 46 45 130q21 91 21 159q0 63 -34 97q-32 31 -86 31q-109 0 -167 -109q-25 -49 -46 -130q-21 -85 -21 -156z" />
<glyph unicode="&#x26;" horiz-adv-x="1718" vert-adv-y="2457" d="M-2 296q0 156 105 284q74 91 177 150q72 41 171 88q-17 92 -17 144q0 86 41 180q56 128 176 202q100 61 226 61q110 0 173 -48q71 -54 71 -151q0 -142 -119 -271q-74 -80 -230 -168q75 -194 179 -381q115 97 164 170q48 72 48 106q0 33 -116 33h-61l33 155h649l-32 -155 h-73q-101 0 -157 -42q-31 -22 -61 -61l-84 -110q-60 -78 -223 -235q37 -42 64 -57q28 -16 74 -16q120 0 187 118q32 57 68 178h157q-42 -179 -83 -257q-63 -122 -177 -189q-110 -65 -236 -65q-83 0 -144 26q-62 26 -150 89q-104 -49 -177 -76q-107 -38 -230 -38 q-215 0 -319 123q-74 89 -74 213zM300 372q0 -122 80 -177q53 -37 133 -37q66 0 181 50q-89 150 -130 250q-26 65 -67 188q-112 -61 -150 -116q-47 -68 -47 -158zM674 1070q0 -46 12 -82l27 -62q121 59 170 114q50 58 50 120q0 87 -100 87q-79 0 -126 -65q-33 -46 -33 -112z " />
<glyph unicode="'" horiz-adv-x="377" vert-adv-y="2457" d="M134 817l77 548h245l-157 -548h-165z" />
<glyph unicode="(" horiz-adv-x="783" vert-adv-y="2457" d="M15 238q0 256 102 507q107 262 302 433q107 93 218 142q90 40 238 85l-27 -127q-140 -64 -201 -119q-172 -156 -268 -464q-89 -286 -89 -519q0 -143 42 -251q28 -71 73 -113q38 -35 115 -78l-27 -128q-193 66 -273 133q-111 94 -164 247q-41 118 -41 252z" />
<glyph unicode=")" horiz-adv-x="783" vert-adv-y="2457" d="M-158 -394l27 128q140 63 201 119q173 156 269 466q88 284 88 516q0 143 -42 251q-28 72 -73 113q-38 36 -115 79l27 127q193 -66 273 -133q111 -94 164 -246q41 -118 41 -253q0 -257 -102 -507q-107 -262 -302 -432q-107 -94 -218 -143q-90 -40 -238 -85z" />
<glyph unicode="*" horiz-adv-x="1017" vert-adv-y="2457" d="M149 798q0 48 41 85q30 27 77 35q14 2 77 6q100 6 200 49q-89 45 -183 50q-75 4 -93 11q-53 20 -53 70q0 46 35 88q46 56 107 56q43 0 67 -35q6 -10 34 -71q36 -81 107 -140q5 49 5 78q0 57 -18 113q-21 64 -21 81q0 47 31 85q39 46 105 46q52 0 75 -30q17 -23 17 -50 q0 -25 -16 -56q-10 -20 -53 -79q-55 -77 -94 -187q96 55 170 140q55 64 74 77q38 28 78 28q31 0 51 -18q33 -30 33 -79q0 -48 -40 -88q-27 -27 -76 -33q-5 -1 -77 -7q-105 -9 -201 -48q62 -34 121 -44q33 -5 125 -11q81 -5 81 -81q0 -43 -34 -84q-45 -56 -104 -56 q-42 0 -69 36q-9 13 -35 69q-21 49 -45 83q-17 25 -61 59q-7 -52 -7 -84q0 -42 20 -107q20 -63 20 -89q0 -40 -31 -76q-40 -46 -101 -46q-94 0 -94 75q0 29 14 59q5 11 53 77q65 90 95 190q-102 -60 -171 -142q-55 -65 -74 -78q-37 -25 -76 -25q-35 0 -54 18q-32 31 -32 80z " />
<glyph unicode="+" horiz-adv-x="1160" vert-adv-y="2457" d="M108 548l40 186h343l71 334h201l-71 -334h343l-40 -186h-343l-71 -334h-201l71 334h-343z" />
<glyph unicode="," horiz-adv-x="488" vert-adv-y="2457" d="M-141 -293l19 90q86 25 129 56q55 41 84 95q15 26 29 80q-55 -31 -94 -31q-59 0 -84 40q-14 22 -14 55q0 65 45 114q54 61 141 61q68 0 109 -40q44 -42 44 -114q0 -100 -60 -193q-114 -177 -348 -213z" />
<glyph unicode="-" horiz-adv-x="551" vert-adv-y="2457" d="M-65 378l46 217h551l-46 -217h-551z" />
<glyph unicode="." horiz-adv-x="630" vert-adv-y="2457" d="M40 88q0 45 24 84q18 30 46 51q57 44 122 44q58 0 93 -44q24 -31 24 -76q0 -52 -35 -101q-59 -81 -155 -81q-60 0 -94 44q-25 32 -25 79z" />
<glyph unicode="/" horiz-adv-x="757" vert-adv-y="2457" d="M-162 -188l840 1593h150l-839 -1593h-151z" />
<glyph unicode="0" vert-adv-y="2457" d="M28 435q0 177 70 350q96 239 303 377q165 111 359 111q242 0 365 -171q89 -123 89 -298q0 -176 -70 -350q-96 -240 -303 -378q-165 -110 -360 -110q-242 0 -364 171q-89 123 -89 298zM329 349q0 -107 49 -167q47 -58 139 -58q171 0 270 205q44 89 81 245q44 183 44 317 q0 106 -48 166q-46 58 -138 58q-173 0 -271 -205q-42 -87 -81 -245q-45 -182 -45 -316z" />
<glyph unicode="1" vert-adv-y="2457" d="M109 0l31 146h90q112 0 145 27q26 22 41 93l139 652h-251l31 144q162 15 233 46q75 33 161 143h165l-210 -988q-9 -40 -9 -67q0 -26 19 -37q24 -13 105 -13h106l-31 -146h-765z" />
<glyph unicode="2" vert-adv-y="2457" d="M-55 -9q34 160 72 234q73 140 245 249q98 63 307 148q98 40 145.5 73t83.5 86q53 78 53 162q0 89 -61 137q-66 52 -171 52q-106 0 -194 -58q-40 -27 -95 -99q48 12 81 12q53 0 86 -40q20 -24 20 -60q0 -76 -53 -134q-60 -64 -148 -64q-66 0 -106 37q-49 44 -49 122 q0 140 139 268q170 158 421 158q159 0 277 -61q160 -83 160 -259q0 -114 -62 -220q-70 -121 -209 -181q-74 -33 -213 -63q-172 -38 -237 -63q-115 -44 -188 -109q-32 -29 -81 -92q105 54 164 54q98 0 273 -41q118 -27 166 -27q47 0 95 32q47 30 77 107q10 23 32 93h116 q-37 -166 -76 -242q-65 -125 -169 -189q-78 -49 -162 -49q-103 0 -225 55q-25 11 -145 81q-51 30 -111 30q-55 0 -91 -41q-24 -28 -49 -98h-118z" />
<glyph unicode="3" vert-adv-y="2457" d="M17 257q0 89 56 161q69 88 174 88q133 0 133 -121q0 -65 -45 -118q-36 -41 -78 -54q-29 -8 -81 -10q59 -59 111 -76q62 -20 135 -20q188 0 285 111q71 80 71 182q0 113 -72 152q-65 34 -221 35l31 148q115 3 172 15q102 22 155 100q40 61 40 131q0 59 -38 101 q-57 62 -170 62q-78 0 -137 -23q-41 -16 -107 -54q61 -11 80 -38q19 -25 19 -63q0 -53 -40 -104q-57 -73 -151 -73q-75 0 -113 44q-27 32 -27 83q0 120 134 225q168 133 431 133q200 0 315 -77q101 -68 101 -190q0 -129 -106 -226q-51 -47 -125 -74q-46 -17 -140 -39 q112 -26 160 -53q119 -67 119 -205q0 -107 -71 -208q-95 -134 -281 -194q-135 -43 -300 -43q-229 0 -347 117q-72 71 -72 175z" />
<glyph unicode="4" vert-adv-y="2457" d="M-1 344l33 156l837 750h196l-155 -730h238l-37 -176h-238l-19 -87q-6 -30 -6 -54q0 -26 18 -37q34 -20 89 -20h114l-31 -146h-720l31 146h73q102 0 134 20q13 9 20 20q10 17 22 71l18 87h-617zM258 520h396l101 445z" />
<glyph unicode="5" vert-adv-y="2457" d="M10 255q0 109 81 179q65 57 150 57q79 0 116 -48q21 -27 21 -65q0 -73 -52 -127q-33 -35 -71 -46q-30 -9 -82 -13q63 -51 113 -66q59 -19 128 -19q192 0 295 136q45 58 70 146q19 67 19 128q0 129 -99 184q-61 33 -139 33q-66 0 -129 -23q-63 -22 -159 -106l-136 6 l202 659q127 -38 192 -49q92 -16 225 -16q128 0 222 14q76 11 225 49q-77 -131 -146 -180q-153 -111 -425 -111q-80 0 -221 20l-55 -187q88 34 146 51q84 23 183 23q186 0 302 -96q114 -95 114 -252q0 -110 -50 -218q-86 -186 -268 -281q-138 -72 -326 -72t-310 69 q-136 77 -136 221z" />
<glyph unicode="6" vert-adv-y="2457" d="M70 385q0 185 72 369q103 260 292 398q168 122 397 122q196 0 297 -93q62 -56 62 -138q0 -70 -46 -124q-62 -72 -161 -72q-70 0 -103 39q-22 27 -22 67q0 47 29 86q23 33 94 59q-50 34 -84 43q-30 8 -65 8q-132 0 -228 -89q-63 -57 -107 -161q-29 -66 -73 -216 q92 53 154 77q80 31 182 31q185 0 283 -109q78 -85 78 -213q0 -99 -49 -195q-82 -162 -247 -244q-137 -68 -317 -68q-232 0 -341 121q-97 108 -97 302zM355 279q0 -168 177 -168q137 0 215 116q64 95 64 225q0 92 -63 133q-48 31 -116 31q-145 0 -220 -124q-57 -95 -57 -213 z" />
<glyph unicode="7" vert-adv-y="2457" d="M171 677l120 565h149l-31 -143q88 89 145 118q71 36 149 36q98 0 229 -53q113 -46 157 -46q41 0 76 23q25 16 55 61h129q-52 -134 -115 -215q-22 -27 -201 -227q-199 -223 -283 -405q-59 -128 -115 -400h-279q46 229 87 333q82 208 309 417q18 16 188 164q27 23 113 104 q-119 -42 -188 -42q-57 0 -183 26q-69 14 -116 14q-67 0 -126 -44q-50 -38 -81 -118q-19 -50 -48 -168h-140z" />
<glyph unicode="8" vert-adv-y="2457" d="M-5 246q0 159 146 265q53 39 180 86q-86 66 -114 117q-33 58 -33 129q0 172 158 297q168 134 425 134q225 0 352 -94q85 -62 85 -163q0 -104 -74 -187q-44 -51 -105 -84q-43 -23 -102 -50q136 -71 174 -144q29 -55 29 -121q0 -83 -40 -166q-74 -156 -237 -228 q-165 -72 -370 -72q-209 0 -346 79q-128 73 -128 202zM232 289q0 -164 287 -164q138 0 221 42q42 21 71 60q32 43 32 95q0 81 -128 125l-257 89q-92 -32 -160 -99q-66 -65 -66 -148zM439 945q0 -95 125 -131l218 -63q61 30 92 54t55 60q41 62 41 127q0 62 -51 95 q-71 46 -189 46q-163 0 -239 -76q-52 -52 -52 -112z" />
<glyph unicode="9" vert-adv-y="2457" d="M65 186q0 65 43 118q62 77 166 77q66 0 98 -36q24 -27 24 -70q0 -45 -26 -82q-22 -34 -93 -62q74 -46 142 -46q139 0 236 95q61 58 103 163q26 66 66 217q-91 -56 -153 -81q-85 -36 -196 -36q-176 0 -273 100q-85 86 -85 220q0 92 44 184q78 164 240 249q149 77 335 77 q435 0 435 -433q0 -174 -62 -343q-96 -263 -281 -404q-173 -132 -415 -132q-183 0 -281 84q-67 56 -67 141zM428 787q0 -98 68 -139q48 -29 112 -29q149 0 223 130q51 90 51 202q0 172 -177 172q-142 0 -218 -120q-59 -92 -59 -216z" />
<glyph unicode=":" horiz-adv-x="651" vert-adv-y="2457" d="M121 88q0 45 24 84q18 30 46 51q57 44 122 44q58 0 93 -44q24 -31 24 -76q0 -52 -35 -101q-59 -81 -155 -81q-60 0 -94 44q-25 32 -25 79zM259 737q0 45 25 85q18 29 45 50q57 44 122 44q58 0 93 -44q24 -31 24 -76q0 -52 -35 -100q-59 -82 -155 -82q-60 0 -94 44 q-25 32 -25 79z" />
<glyph unicode=";" horiz-adv-x="651" vert-adv-y="2457" d="M53 -293l19 90q86 25 129 56q55 41 84 95q15 26 29 80q-55 -31 -94 -31q-59 0 -84 40q-14 22 -14 55q0 65 45 114q54 61 141 61q68 0 109 -40q44 -42 44 -114q0 -100 -60 -193q-114 -177 -348 -213zM283 737q0 45 24 84q18 29 46 51q57 44 122 44q58 0 92 -44 q25 -32 25 -76q0 -52 -35 -100q-59 -82 -155 -82q-60 0 -94 44q-25 32 -25 79z" />
<glyph unicode="&#x3c;" horiz-adv-x="1024" vert-adv-y="2457" d="M46 578l45 210l982 448l-52 -248l-689 -305l559 -305l-53 -248z" />
<glyph unicode="=" horiz-adv-x="1160" vert-adv-y="2457" d="M76 396l38 177h887l-38 -177h-887zM146 728l38 177h887l-37 -177h-888z" />
<glyph unicode="&#x3e;" horiz-adv-x="1024" vert-adv-y="2457" d="M-49 130l53 248l687 305l-558 305l53 248l792 -448l-45 -210z" />
<glyph unicode="?" horiz-adv-x="1078" vert-adv-y="2457" d="M167 958q0 152 121 277q165 170 431 170q226 0 333 -127q63 -74 63 -176q0 -142 -110 -256q-53 -55 -151 -120q-14 -8 -149 -92q-92 -58 -137 -120q-29 -40 -52 -127h-130q24 149 70 219q45 68 170 178q96 83 123 115q72 84 72 182q0 76 -47 118q-62 56 -164 56t-189 -63 q-51 -37 -76 -80q-18 -33 -38 -93q74 48 125 48q63 0 90 -46q14 -25 14 -56q0 -65 -49 -118q-67 -71 -159 -71q-83 0 -130 67q-31 46 -31 115zM235 88q0 45 25 85q18 29 45 50q57 44 122 44q59 0 93 -44q24 -31 24 -76q0 -52 -35 -101q-59 -81 -155 -81q-60 0 -94 44 q-25 32 -25 79z" />
<glyph unicode="@" horiz-adv-x="1520" vert-adv-y="2457" d="M54 522q0 164 77 330q122 258 362 408q214 134 456 134q265 0 412 -156q122 -128 122 -322q0 -152 -72 -296q-93 -185 -237 -267q-77 -44 -148 -44t-109 52q-20 26 -21 65q-41 -46 -88 -74q-101 -59 -198 -59q-121 0 -184 92q-43 63 -43 152q0 169 133 324 q147 171 324 171q89 0 143 -51q27 -25 40 -63l37 92l164 -1l-164 -402q-35 -86 -35 -118q0 -45 40 -45q78 0 167 128q103 151 103 318q0 141 -84 234q-112 122 -326 122q-196 0 -364 -108q-187 -121 -281 -321q-63 -133 -63 -271q0 -162 85 -275q115 -152 377 -152 q218 0 412 70l7 -148q-205 -71 -447 -71q-321 0 -475 188q-122 150 -122 364zM574 577q0 -56 33 -87t85 -31q106 0 185 116q60 87 60 167q0 38 -15 65q-28 50 -94 50q-110 0 -193 -112q-61 -83 -61 -168z" />
<glyph unicode="A" horiz-adv-x="1464" vert-adv-y="2457" d="M-175 0l33 155h43q76 0 122 27q43 26 87 104l609 1079h288l177 -1077q12 -70 19 -86q16 -35 54 -43q18 -4 63 -4h41l-33 -155h-705l33 155h111q74 0 96 12q30 16 30 54q0 19 -5 54l-25 160h-450l-97 -172q-30 -53 -30 -74q0 -15 13 -24q14 -10 88 -10h107l-33 -155h-636z M503 596h338l-76 473z" />
<glyph unicode="B" horiz-adv-x="1485" vert-adv-y="2457" d="M-94 0l33 155h79q92 0 119 23q25 21 43 103l170 803q11 51 11 70q0 29 -19 42q-21 14 -100 14h-79l33 155h786q443 0 443 -254q0 -132 -73 -232q-49 -66 -119 -99q-64 -30 -157 -56q102 -26 145 -52q119 -70 119 -210q0 -93 -37 -182q-62 -148 -216 -220 q-130 -60 -433 -60h-748zM440 153h225q148 0 221 32q89 39 133 145q27 62 27 127q0 75 -44 116q-39 38 -100 47q-66 10 -155 10h-206zM574 785h195q161 0 227 37q134 74 134 236q0 65 -36 100q-30 30 -77 39q-59 11 -137 11h-216z" />
<glyph unicode="C" horiz-adv-x="1444" vert-adv-y="2457" d="M53 509q0 181 75 353q113 259 366 419q197 124 415 124q132 0 227 -46q50 -24 139 -95l65 122h146l-118 -558h-156q2 55 2 81q0 125 -51 205q-79 124 -251 124q-247 0 -404 -252q-63 -100 -103 -247q-38 -141 -38 -269q0 -165 98 -250q85 -74 218 -74q155 0 274 105 q69 61 110 139q31 59 64 138h173q-65 -194 -126 -280q-204 -288 -568 -288q-288 0 -439 189q-118 148 -118 360z" />
<glyph unicode="D" horiz-adv-x="1648" vert-adv-y="2457" d="M-94 0l33 155h79q92 0 119 22q25 22 43 104l170 803q11 51 11 70q0 29 -19 42q-21 14 -100 14h-79l33 155h775q280 0 423 -100q97 -67 143 -183q36 -91 36 -195q0 -187 -75 -381q-105 -270 -349 -404q-186 -102 -468 -102h-775zM440 155h177q174 0 259 26q185 58 292 305 q83 193 83 393q0 131 -55 222q-33 55 -108 83q-71 26 -246 26h-178z" />
<glyph unicode="E" horiz-adv-x="1536" vert-adv-y="2457" d="M-94 0l33 155h79q92 0 119 23q25 21 43 103l170 804q11 50 11 69q0 29 -19 42q-20 14 -100 14h-79l33 155h1343l-116 -542h-155q20 111 20 172q0 131 -61 173q-59 42 -236 42h-327l-89 -419h77q147 0 193 59q26 32 76 189h155l-145 -683h-155q15 106 15 157q0 78 -42 104 q-32 19 -128 19h-79l-102 -481h356q145 0 215 43q81 50 143 199q26 63 62 182h155l-123 -579h-1342z" />
<glyph unicode="F" horiz-adv-x="1414" vert-adv-y="2457" d="M-94 0l33 155h79q92 0 119 23q25 21 43 103l170 804q11 50 11 69q0 29 -19 42q-20 14 -100 14h-79l33 155h1268l-120 -566h-156q25 131 25 196q0 131 -61 174q-58 41 -236 41h-252l-89 -419h34q148 0 194 59q25 32 76 189h155l-145 -683h-156q15 105 15 157q0 78 -42 103 q-32 19 -127 19h-37l-75 -354q-11 -51 -11 -70q0 -29 19 -42q21 -14 100 -14h96l-33 -155h-732z" />
<glyph unicode="G" horiz-adv-x="1606" vert-adv-y="2457" d="M52 507q0 184 79 361q116 264 362 416q195 121 419 121q140 0 228 -46q49 -25 135 -104l80 118h144l-113 -533h-155q-5 132 -28 193q-41 106 -129 160q-73 45 -166 45q-248 0 -405 -260q-64 -106 -101 -249q-34 -129 -34 -252q0 -173 94 -258q86 -78 224 -78 q144 0 256 81q47 34 70 74q19 32 31 91l16 76q10 45 10 63q0 24 -17 35q-20 12 -50 13q-27 1 -74 1h-86l33 155h722l-33 -155h-86q-70 0 -93 -18q-27 -22 -46 -110l-97 -455h-149l-48 114q-118 -72 -192 -102q-107 -43 -253 -43q-289 0 -437 194q-111 146 -111 352z" />
<glyph unicode="H" horiz-adv-x="1688" vert-adv-y="2457" d="M-97 0l33 155h79q92 0 119 22q25 22 43 104l170 803q11 51 11 70q0 29 -19 42q-21 14 -100 14h-79l33 155h732l-33 -155h-96q-92 0 -119 -23q-25 -21 -43 -103l-64 -301h590l64 301q11 53 11 70q0 29 -19 42q-21 14 -100 14h-96l33 155h732l-33 -155h-80q-92 0 -118 -23 q-26 -21 -43 -103l-171 -803q-10 -48 -10 -70q0 -29 18 -42q21 -14 100 -14h79l-33 -155h-731l33 155h96q92 0 119 22q25 22 42 104l72 337h-590l-71 -337q-11 -51 -11 -70q0 -29 19 -42q20 -14 100 -14h96l-33 -155h-732z" />
<glyph unicode="I" horiz-adv-x="844" vert-adv-y="2457" d="M-91 0l33 155h87q92 0 119 22q25 22 43 104l170 803q11 50 11 70q0 29 -19 42q-21 14 -100 14h-87l33 155h736l-33 -155h-88q-91 0 -118 -23q-26 -21 -43 -103l-171 -803q-10 -49 -10 -70q0 -30 19 -42q20 -14 99 -14h88l-33 -155h-736z" />
<glyph unicode="J" horiz-adv-x="1180" vert-adv-y="2457" d="M-37 235q0 96 48 168q29 44 81 71q53 29 113 29q132 0 132 -125q0 -67 -41 -121q-30 -39 -67 -56q-25 -12 -67 -24q36 -32 57 -42q36 -18 99 -18q116 0 181 69q35 37 52 87q17 51 32 123l146 688q11 52 11 70q0 29 -19 42q-20 14 -100 14h-96l33 155h718l-33 -155h-61 q-92 0 -118 -23q-26 -21 -43 -103l-138 -648q-40 -189 -95 -268q-79 -113 -223 -167q-109 -41 -234 -41q-203 0 -304 109q-64 70 -64 166z" />
<glyph unicode="K" horiz-adv-x="1576" vert-adv-y="2457" d="M-94 0l33 155h79q92 0 119 22q25 22 43 104l170 803q11 51 11 70q0 29 -19 42q-21 14 -100 14h-79l33 155h694l-33 -155h-65q-92 0 -119 -23q-25 -21 -43 -103l-81 -384l551 431q46 36 46 56q0 23 -76 23h-90l34 155h687l-33 -156h-46q-89 0 -175 -42q-86 -43 -210 -138 l-239 -182l290 -589q32 -66 67 -87q28 -16 107 -16h68l-33 -155h-757l33 155h110q66 0 84 16q11 10 11 26q0 25 -19 64l-195 401l-265 -194l-39 -187q-11 -51 -11 -70q0 -29 19 -42q20 -14 100 -14h54l-33 -155h-683z" />
<glyph unicode="L" horiz-adv-x="1413" vert-adv-y="2457" d="M-94 0l33 155h79q92 0 119 23q25 21 43 103l170 803q11 51 11 70q0 29 -19 42q-21 14 -100 14h-79l33 155h732l-33 -155h-96q-92 0 -119 -23q-25 -21 -43 -103l-197 -929h252q166 0 238 34q90 41 151 182q30 69 63 220h155l-125 -591h-1268z" />
<glyph unicode="M" horiz-adv-x="1983" vert-adv-y="2457" d="M-94 0l33 155h73q92 0 119 22q25 22 42 104l171 803q11 52 11 70q0 29 -19 42q-20 14 -100 14h-73l33 155h637l114 -886l526 886h609l-33 -155h-79q-92 0 -119 -23q-25 -21 -42 -103l-171 -803q-11 -52 -11 -70q0 -29 19 -42q21 -14 100 -14h79l-33 -155h-702l33 155h91 q92 0 119 22q25 22 42 104l188 883l-686 -1164h-134l-163 1186l-192 -905q-11 -52 -11 -70q0 -29 19 -42q20 -14 100 -14h81l-33 -155h-638z" />
<glyph unicode="N" horiz-adv-x="1668" vert-adv-y="2457" d="M-125 0l33 155h95q92 0 119 22q25 22 43 104l170 803q11 51 11 70q0 29 -19 42q-20 14 -100 14h-87l33 155h583l394 -991l150 710q11 50 11 70q0 29 -19 42q-20 14 -99 14h-96l33 155h646l-33 -155h-67q-92 0 -118 -23q-26 -21 -43 -103l-230 -1084h-288l-441 1112 l-177 -831q-10 -48 -10 -70q0 -29 18 -42q21 -14 100 -14h93l-33 -155h-672z" />
<glyph unicode="O" horiz-adv-x="1647" vert-adv-y="2457" d="M54 504q0 183 77 361q116 266 378 418q208 120 472 120q320 0 487 -187q126 -142 126 -354q0 -185 -77 -362q-116 -268 -377 -418q-209 -120 -474 -120q-320 0 -485 187q-127 143 -127 355zM370 469q0 -98 44 -186q81 -159 293 -159q164 0 295 102q148 115 218 325 q59 178 59 344q0 172 -107 269q-85 77 -229 77q-164 0 -296 -103q-147 -113 -218 -324q-59 -178 -59 -345z" />
<glyph unicode="P" horiz-adv-x="1393" vert-adv-y="2457" d="M-94 0l33 155h79q92 0 119 23q25 21 43 103l170 803q11 51 11 70q0 29 -19 42q-21 14 -100 14h-79l33 155h718q201 0 306 -41q179 -71 179 -253q0 -94 -41 -183q-78 -172 -259 -233q-114 -38 -372 -38h-189l-71 -336q-11 -51 -11 -70q0 -29 19 -42q20 -14 100 -14h96 l-33 -155h-732zM571 772h135q167 0 238 30q93 40 133 140q21 52 21 107q0 82 -50 119q-42 30 -123 38q-39 4 -142 4h-119z" />
<glyph unicode="Q" horiz-adv-x="1698" vert-adv-y="2457" d="M52 503q0 186 76 362q116 267 378 418q208 120 472 120q322 0 487 -187q127 -144 127 -357q0 -263 -150 -487q-77 -114 -197 -209q50 -82 110 -82q44 0 74 51q17 28 48 135h133q-30 -130 -55 -187q-99 -221 -316 -221q-82 0 -142 45q-40 29 -106 111q-186 -54 -323 -54 q-323 0 -490 188q-126 143 -126 354zM366 488q0 -95 26 -157q15 -36 59 -81q17 106 44 154q45 79 126 119q67 33 150 33q123 0 224 -72q52 -37 135 -137q62 92 91 168q66 175 66 359q0 196 -107 291q-86 76 -235 76q-280 0 -444 -264q-63 -101 -99 -235q-36 -130 -36 -254z M558 220q0 -46 35 -76q36 -30 95 -30q62 0 130 20q24 7 56 22q31 15 31 19q0 57 -67 136q-52 63 -129 63q-66 0 -109 -48q-42 -47 -42 -106z" />
<glyph unicode="R" horiz-adv-x="1576" vert-adv-y="2457" d="M-94 0l33 155h79q92 0 119 23q25 21 43 103l170 803q11 51 11 70q0 29 -19 42q-21 14 -100 14h-79l33 155h816q182 0 277 -34q164 -60 164 -221q0 -89 -42 -173q-63 -124 -206 -189q-72 -34 -224 -56q112 -20 157 -54q66 -51 66 -126q0 -38 -12 -115l-18 -122 q-6 -41 -6 -71q0 -45 47 -45q37 0 57 44q20 46 51 186h130q-30 -144 -51 -201q-48 -126 -132 -179q-78 -49 -186 -49q-217 0 -217 193q0 31 5 58l28 159q11 64 11 114q0 84 -50 118q-63 42 -221 42h-96l-77 -363q-11 -51 -11 -70q0 -29 19 -42q20 -14 100 -14h96l-33 -155 h-732zM577 799h240q121 0 185 28q90 40 126 135q18 48 18 99q0 73 -42 108q-49 41 -206 41h-234z" />
<glyph unicode="S" horiz-adv-x="1312" vert-adv-y="2457" d="M-58 0l120 564h157q0 -73 5 -123q14 -143 124 -227q93 -71 251 -71q173 0 258 85q54 54 54 135q0 115 -193 162l-211 51q-178 44 -272 113q-99 72 -99 205q0 97 43 193q77 169 253 253q134 65 294 65q129 0 214 -37q58 -26 155 -102l94 99h121l-111 -517h-154v10 q0 96 -18 151q-36 115 -108 166q-93 64 -220 64q-111 0 -192 -43q-43 -22 -73 -67q-32 -47 -32 -100q0 -57 47 -94q33 -27 121 -48l261 -63q175 -42 268 -126q86 -77 86 -215q0 -195 -152 -345q-83 -83 -207 -130q-126 -48 -253 -48q-147 0 -272 64q-55 29 -146 104 l-73 -128h-140z" />
<glyph unicode="T" horiz-adv-x="1383" vert-adv-y="2457" d="M74 800l120 565h1284l-120 -565h-155q21 123 21 180q0 116 -57 175q-40 41 -105 51q-50 8 -114 8l-199 -933q-10 -49 -10 -70q0 -29 19 -42q20 -14 99 -14h118l-33 -155h-791l33 155h117q92 0 119 22q25 22 42 104l199 933q-132 -2 -196 -31q-105 -49 -169 -180 q-31 -63 -67 -203h-155z" />
<glyph unicode="U" horiz-adv-x="1556" vert-adv-y="2457" d="M153 1210l33 155h710l-33 -155h-88q-92 0 -119 -23q-25 -21 -42 -103l-139 -653q-15 -69 -15 -119t35 -84q67 -67 194 -67q139 0 240 73q45 32 68 75q25 49 41 122l139 653q10 49 10 70q0 29 -19 42q-20 14 -99 14h-80l33 155h633l-33 -155h-62q-92 0 -119 -23 q-25 -21 -43 -103l-138 -653q-48 -222 -195 -337q-171 -134 -445 -134q-237 0 -365 116q-84 77 -84 204q0 73 17 151l138 653q11 50 11 70q0 29 -19 42q-20 14 -100 14h-65z" />
<glyph unicode="V" horiz-adv-x="1454" vert-adv-y="2457" d="M82 1209l33 156h716l-33 -156h-106q-64 0 -93 -17q-30 -19 -30 -73q0 -36 5 -71l102 -709l424 725q42 72 42 107q0 17 -16 26q-24 12 -102 12h-90l33 156h649l-33 -156h-42q-80 0 -121 -29q-34 -24 -81 -104l-632 -1076h-282l-153 1080q-11 74 -38 100q-30 29 -92 29h-60 z" />
<glyph unicode="W" horiz-adv-x="1993" vert-adv-y="2457" d="M132 1209l33 156h583l-33 -156h-65q-60 0 -84 -28q-16 -19 -16 -60q0 -9 1 -18l48 -770l393 704q0 101 -29 139q-27 33 -89 33h-49l33 156h598l-33 -156h-75q-71 0 -93 -24q-16 -17 -16 -55q0 -21 1 -32l71 -745l351 693q43 84 43 121q0 13 -14 22q-30 20 -89 20h-68 l34 156h558l-33 -156h-45q-97 0 -166 -137l-539 -1072h-270l-57 730l-403 -730h-258l-69 1027q-8 114 -29 145q-26 37 -91 37h-34z" />
<glyph unicode="X" horiz-adv-x="1607" vert-adv-y="2457" d="M-145 0l33 155h68q71 0 107 19q38 21 102 79l484 445l-235 402q-37 63 -69 84q-40 26 -108 26h-70l33 155h722l-33 -155h-94q-68 0 -68 -49q0 -21 21 -55l133 -216l266 227q45 38 45 63q0 30 -84 30h-78l33 155h641l-33 -155h-74q-62 0 -127 -49q-41 -31 -121 -102 l-371 -329l254 -431q53 -90 87 -118q24 -19 54 -23q26 -3 74 -3h60l-33 -155h-783l33 155h94q61 0 83 12q21 12 21 41q0 24 -12 45l-162 282l-242 -224q-88 -81 -88 -123q0 -13 12 -23q11 -10 74 -10h95l-33 -155h-711z" />
<glyph unicode="Y" horiz-adv-x="1495" vert-adv-y="2457" d="M112 1210l33 155h723l-33 -155h-101q-58 0 -78 -14q-21 -14 -21 -42q0 -22 16 -53l160 -321l315 332q40 42 40 66q0 32 -65 32h-120l33 155h632l-33 -155h-46q-59 0 -97 -21q-33 -18 -81 -69l-523 -549l-62 -290q-10 -49 -10 -70q0 -29 18 -42q21 -14 100 -14h119 l-33 -155h-794l33 155h119q92 0 119 22q25 22 42 104l62 290l-232 499q-29 63 -60 97q-38 43 -108 43h-67z" />
<glyph unicode="Z" horiz-adv-x="1343" vert-adv-y="2457" d="M-64 0l35 164l1038 1046h-232q-184 0 -253 -34q-102 -50 -161 -185q-27 -62 -61 -198h-155l121 572h1111l-38 -175l-1027 -1035h217q194 0 281 36q102 42 176 206q31 71 76 221h156l-132 -618h-1152z" />
<glyph unicode="[" horiz-adv-x="783" vert-adv-y="2457" d="M-37 -353l365 1718h509l-29 -137h-246l-307 -1444h246l-30 -137h-508z" />
<glyph unicode="\" horiz-adv-x="756" vert-adv-y="2457" d="M236 1405h151l162 -1593h-151z" />
<glyph unicode="]" horiz-adv-x="783" vert-adv-y="2457" d="M-129 -353l29 137h246l307 1444h-246l29 137h509l-366 -1718h-508z" />
<glyph unicode="^" horiz-adv-x="1024" vert-adv-y="2457" d="M56 737l464 634h278l194 -634h-225l-145 465l-342 -465h-224z" />
<glyph unicode="_" horiz-adv-x="1024" vert-adv-y="2457" d="M-205 -280l32 152h1024l-32 -152h-1024z" />
<glyph unicode="`" horiz-adv-x="1024" vert-adv-y="2457" d="M279 1364q0 55 46 96q39 34 88 34q39 0 73 -26q25 -18 62 -68l214 -294h-113l-290 161q-80 45 -80 97z" />
<glyph unicode="a" horiz-adv-x="1159" vert-adv-y="2457" d="M-43 168q0 82 45 157q64 108 230 168q75 28 246 68q108 25 149 58q68 52 68 149q0 118 -184 118q-111 0 -202 -61q68 -2 92 -27q21 -20 21 -57q0 -61 -44 -106q-50 -52 -129 -52q-77 0 -113 51q-19 28 -19 69q0 117 116 201q128 92 336 92q146 0 245 -39q52 -20 86 -66 q33 -45 33 -97q0 -47 -25 -163l-90 -426q-4 -18 -4 -37q0 -37 39 -37q34 0 58 49q22 46 50 179h124q-45 -198 -86 -263q-84 -132 -250 -132q-96 0 -144 43q-33 29 -45 109q-82 -76 -140 -105q-98 -48 -222 -48q-126 0 -190 70q-51 55 -51 135zM239 219q0 -85 104 -85 q92 0 165 62q77 65 104 190l25 117q-80 -37 -223 -89q-82 -30 -128 -81q-47 -52 -47 -114z" />
<glyph unicode="b" horiz-adv-x="1210" vert-adv-y="2457" d="M12 -11l238 1119q9 43 9 69q0 27 -20 38q-26 14 -81 14h-42l29 136h404l-118 -555q91 103 160 139q92 47 204 47q156 0 242 -90q87 -91 87 -242q0 -145 -53 -301q-64 -185 -213 -303q-122 -95 -282 -95q-127 0 -215 54q-46 27 -106 105l-110 -135h-133zM344 334 q0 -94 56 -151q47 -47 131 -47q140 0 225 146q36 62 62 166q25 101 25 187q0 95 -54 146q-42 39 -115 39q-152 0 -246 -155q-36 -59 -61 -158q-23 -94 -23 -173z" />
<glyph unicode="c" horiz-adv-x="1047" vert-adv-y="2457" d="M2 338q0 142 59 278q85 191 275 297q149 83 324 83q185 0 280 -94q62 -62 62 -151t-55 -155q-58 -70 -147 -70q-70 0 -103 42q-20 25 -20 63q0 56 38 101q35 43 109 57q-46 40 -75 54q-39 19 -101 19q-172 0 -273 -168q-38 -63 -65 -154q-30 -104 -30 -194 q0 -198 200 -198q119 0 196 85q47 52 90 166h157q-37 -124 -70 -182q-142 -252 -454 -252q-228 0 -330 146q-67 95 -67 227z" />
<glyph unicode="d" vert-adv-y="2457" d="M9 302q0 148 53 303q70 201 212 303q123 88 282 88q133 0 203 -60q44 -37 79 -136l66 307q9 44 9 67q0 21 -8 29q-21 25 -93 25h-86l29 137h448l-235 -1107q-9 -41 -9 -66q0 -22 7 -30q22 -25 93 -25h58l-29 -137h-420l36 167q-89 -112 -161 -149q-90 -47 -205 -47 q-159 0 -244 87q-85 88 -85 244zM287 320q0 -95 54 -146q42 -39 115 -39q152 0 246 155q36 59 61 159q23 94 23 173q0 94 -56 151q-47 47 -129 47q-142 0 -227 -146q-36 -61 -62 -166q-25 -102 -25 -188z" />
<glyph unicode="e" horiz-adv-x="1088" vert-adv-y="2457" d="M4 347q0 141 61 275q90 198 272 300q133 74 298 74q181 0 272 -89q92 -91 92 -232q0 -90 -22 -215h-685q-11 -78 -11 -136q0 -98 60 -155q45 -42 135 -42q111 0 183 52q58 42 116 164h171q-53 -134 -107 -195q-164 -184 -434 -184q-204 0 -310 118q-91 103 -91 265z M331 603h407q6 61 6 104q0 154 -139 154q-87 0 -157 -64q-43 -39 -67 -84q-24 -44 -50 -110z" />
<glyph unicode="f" horiz-adv-x="763" vert-adv-y="2457" d="M-94 0l29 137h59q82 0 111 25q23 20 39 96l118 558h-183l30 141h184l6 32q88 411 441 411q135 0 207 -67q44 -41 44 -103q0 -69 -42 -126q-49 -67 -130 -67q-64 0 -92 39q-16 21 -16 53q0 47 31 87q27 35 82 51q-33 28 -80 28q-86 0 -130 -64q-26 -38 -47 -136l-30 -138 h208l-30 -141h-208l-118 -558q-9 -41 -9 -66q0 -21 7 -30q22 -25 93 -25h91l-29 -137h-636z" />
<glyph unicode="g" horiz-adv-x="1352" vert-adv-y="2457" d="M-120 -235q0 72 51 123q49 48 179 86q-92 30 -116 80q-15 31 -15 65q0 79 61 142q51 54 167 97q-35 42 -52 71q-35 57 -35 133q0 99 54 193q78 135 239 197q112 44 247 44q120 0 210 -33q43 -16 104 -59q62 50 101 67q57 25 120 25q86 0 137 -41q46 -38 46 -111 q0 -89 -54 -144q-51 -52 -117 -52q-52 0 -86 36q-21 22 -21 59q0 104 124 141q-31 27 -59 27q-71 0 -155 -85q22 -76 22 -120q0 -85 -42 -172q-129 -263 -491 -263q-92 0 -215 36q-68 -44 -68 -83q0 -24 21 -41q21 -16 98 -16h279q175 0 251 -26q142 -50 142 -194 q0 -72 -38 -141q-74 -138 -249 -193q-160 -51 -377 -51q-248 0 -377 70q-86 47 -86 133zM61 -204q0 -44 37 -72q60 -45 255 -45q187 0 276 44q92 46 92 130q0 50 -48 72q-52 25 -237 25q-238 0 -304 -41q-71 -45 -71 -113zM386 531q0 -131 138 -131q131 0 189 108 q24 44 40 113q15 66 15 124q0 132 -141 132q-127 0 -186 -110q-23 -42 -39 -108q-16 -67 -16 -128z" />
<glyph unicode="h" horiz-adv-x="1322" vert-adv-y="2457" d="M-94 0l29 137h53q75 0 103 25q23 20 40 96l180 850q10 46 10 66q0 21 -8 30q-21 25 -93 25h-53l29 136h415l-122 -573q117 110 188 147q101 53 202 53q104 0 175 -51q68 -48 68 -137q0 -69 -21 -167l-80 -379q-10 -45 -10 -67q0 -21 7 -29q22 -25 94 -25h57l-30 -137 h-576l29 137h41q75 0 103 25q24 20 40 96l80 379q15 69 15 100q0 43 -37 72q-33 26 -85 26q-116 0 -214 -100q-50 -53 -76 -120q-18 -48 -33 -117l-50 -240q-10 -45 -10 -66q0 -22 7 -30q22 -25 94 -25h41l-30 -137h-572z" />
<glyph unicode="i" horiz-adv-x="712" vert-adv-y="2457" d="M-94 0l29 137h74q74 0 103 25q23 20 40 96l94 445q9 41 9 66q0 21 -7 30q-22 25 -93 25h-74l29 137h439l-149 -703q-9 -43 -9 -66q0 -21 7 -30q22 -25 94 -25h60l-29 -137h-617zM310 1201q0 45 24 85q18 29 46 51q57 44 122 44q58 0 92 -44q24 -32 24 -77q0 -53 -35 -100 q-59 -82 -154 -82q-60 0 -94 44q-25 32 -25 79z" />
<glyph unicode="j" horiz-adv-x="651" vert-adv-y="2457" d="M-330 -268q0 62 39 112q53 69 138 69q55 0 83 -31q19 -20 19 -55q0 -48 -26 -85q-30 -42 -108 -56q55 -23 88 -23t70 26q42 29 63 89q10 28 26 104l174 820q9 40 9 67q0 22 -7 30q-22 25 -93 25h-81l30 137h446l-215 -1013q-41 -191 -114 -267q-115 -119 -302 -119 q-113 0 -182 55q-57 45 -57 115zM300 1201q0 45 25 85q18 29 45 51q58 44 122 44q58 0 93 -44q24 -32 24 -76q0 -53 -35 -101q-59 -82 -155 -82q-60 0 -94 44q-25 32 -25 79z" />
<glyph unicode="k" horiz-adv-x="1302" vert-adv-y="2457" d="M-94 0l29 137h53q75 0 103 25q23 20 40 97l180 849q10 46 10 66q0 21 -8 30q-21 25 -93 25h-53l29 136h415l-185 -871l363 252q46 33 46 55q0 8 -5 13q-9 10 -62 10h-109l29 137h608l-29 -137h-42q-55 0 -101 -19q-25 -11 -92 -58l-222 -155l169 -340q57 -115 164 -115 h47l-29 -137h-589l29 137h69q64 0 64 37q0 21 -13 48l-110 236l-225 -152l-10 -47q-10 -45 -10 -67t7 -30q23 -25 94 -25h24l-29 -137h-556z" />
<glyph unicode="l" horiz-adv-x="692" vert-adv-y="2457" d="M-104 0l29 137h62q75 0 104 25q23 20 39 96l181 849q9 43 9 67q0 21 -7 30q-22 25 -94 25h-62l29 136h428l-235 -1107q-9 -41 -9 -66q0 -22 7 -30q22 -25 93 -25h63l-30 -137h-607z" />
<glyph unicode="m" horiz-adv-x="1892" vert-adv-y="2457" d="M-94 0l29 137h66q75 0 104 25q23 20 39 96l94 445q10 45 10 66q0 22 -7 30q-22 25 -94 25h-66l29 137h424l-34 -163q116 110 184 146q90 48 187 48q102 0 158 -48q44 -38 66 -147q129 111 195 147q90 48 185 48q131 0 196 -79q33 -41 33 -96q0 -54 -27 -180l-80 -379 q-9 -42 -9 -67q0 -21 7 -29q22 -25 93 -25h57l-29 -137h-555l29 137h23q75 0 103 25q24 20 40 96l80 379q17 79 17 111q0 35 -25 59q-31 28 -87 28q-89 0 -173 -74q-86 -74 -111 -194l-66 -309q-9 -42 -9 -66q0 -22 8 -30q21 -25 92 -25h23l-29 -137h-521l29 137h23 q75 0 103 25q24 20 40 96l80 379q17 78 17 111q0 35 -26 59q-30 28 -86 28q-88 0 -173 -74q-86 -74 -111 -194l-66 -309q-9 -43 -9 -67q0 -21 8 -29q21 -25 92 -25h24l-29 -137h-565z" />
<glyph unicode="n" horiz-adv-x="1332" vert-adv-y="2457" d="M-94 0l29 137h66q75 0 104 25q23 20 39 96l94 445q10 45 10 66q0 22 -7 30q-22 25 -94 25h-66l29 137h428l-36 -169q117 110 188 147q101 53 201 53q105 0 177 -51q67 -48 67 -137q0 -70 -21 -167l-80 -379q-10 -47 -10 -67t8 -29q21 -25 93 -25h58l-29 -137h-578l29 137 h41q75 0 104 25q23 20 39 96l81 379q14 68 14 100q0 43 -37 72q-33 26 -85 26q-116 0 -214 -100q-50 -52 -75 -115q-16 -39 -31 -113l-53 -249q-9 -41 -9 -66q0 -22 7 -30q22 -25 93 -25h41l-29 -137h-586z" />
<glyph unicode="o" horiz-adv-x="1200" vert-adv-y="2457" d="M1 351q0 133 56 262q84 193 276 300q148 83 336 83q230 0 350 -130q94 -102 94 -256q0 -134 -55 -262q-84 -193 -277 -301q-146 -82 -335 -82q-231 0 -351 130q-94 103 -94 256zM275 314q0 -205 203 -205q174 0 266 157q43 72 70 181q26 103 26 199q0 206 -202 206 q-176 0 -268 -157q-41 -71 -69 -181q-26 -102 -26 -200z" />
<glyph unicode="p" vert-adv-y="2457" d="M-218 -438l29 137h61q75 0 103 25q24 20 40 96l187 883q10 46 10 67t-8 29q-21 25 -93 25h-51l29 137h413l-36 -167q89 112 161 149q90 47 205 47q159 0 244 -87q85 -88 85 -244q0 -149 -53 -303q-70 -200 -212 -303q-123 -88 -282 -88q-133 0 -203 60q-44 37 -79 136 l-72 -341q-10 -45 -10 -66t8 -30q22 -25 93 -25h91l-29 -137h-631zM384 339q0 -94 56 -151q47 -47 130 -47q141 0 226 146q36 62 62 166q25 101 25 188q0 95 -54 146q-42 39 -115 39q-153 0 -247 -155q-35 -60 -60 -159q-23 -93 -23 -173z" />
<glyph unicode="q" horiz-adv-x="1281" vert-adv-y="2457" d="M28 296q0 148 53 303q70 201 212 303q123 88 282 88q133 0 203 -60q44 -38 79 -136l36 167h413l-28 -137h-52q-75 0 -104 -25q-23 -20 -39 -96l-188 -883q-9 -43 -9 -66q0 -21 7 -30q22 -25 94 -25h63l-29 -137h-634l29 137h91q75 0 104 25q23 20 39 96l73 341 q-89 -113 -161 -149q-90 -47 -206 -47q-159 0 -243 87q-85 88 -85 244zM309 326q0 -95 54 -146q42 -39 115 -39q152 0 246 155q36 59 61 159q23 93 23 173q0 94 -56 151q-47 47 -129 47q-142 0 -227 -146q-36 -62 -62 -166q-25 -102 -25 -188z" />
<glyph unicode="r" horiz-adv-x="1007" vert-adv-y="2457" d="M-94 0l29 137h66q75 0 104 25q23 20 39 96l94 445q10 45 10 66q0 22 -7 31q-22 25 -94 25h-66l29 136h428l-31 -144q83 97 143 130q75 41 153 41q89 0 147 -49q53 -44 53 -127q0 -79 -55 -146q-60 -71 -150 -71q-117 0 -117 97q0 118 156 167q-56 20 -88 20 q-47 0 -110 -41q-147 -94 -195 -321l-55 -259q-9 -41 -9 -66q0 -21 7 -30q22 -25 93 -25h101l-29 -137h-646z" />
<glyph unicode="s" horiz-adv-x="1007" vert-adv-y="2457" d="M-87 -12l84 393h149q5 -99 29 -144q65 -124 235 -124q92 0 149 44q52 41 52 101q0 68 -146 105l-142 35q-256 64 -256 237q0 77 39 151q58 108 179 162q106 48 226 48q103 0 184 -39q34 -17 86 -58l59 75h117l-75 -355h-138q-9 71 -24 105q-30 66 -96 97q-63 30 -130 30 q-83 0 -135 -42q-44 -35 -44 -91q0 -59 95 -83l174 -43q158 -40 224 -105q59 -58 59 -146q0 -142 -109 -251q-126 -125 -354 -125q-123 0 -208 47q-34 18 -93 62l-55 -86h-135z" />
<glyph unicode="t" horiz-adv-x="824" vert-adv-y="2457" d="M59 820l28 133q121 26 178 69q82 60 128 165q18 42 54 151h129l-80 -377h265l-30 -141h-269l-116 -547q-10 -47 -10 -70q0 -50 59 -50q66 0 95 73q21 51 61 227h132q-38 -197 -73 -275q-96 -213 -318 -213q-119 0 -168 65q-38 51 -38 117q0 57 21 154l110 519h-158z" />
<glyph unicode="u" horiz-adv-x="1322" vert-adv-y="2457" d="M81 824l29 137h409l-136 -638q-15 -72 -15 -99q0 -43 37 -72q33 -26 86 -26q115 0 213 100q51 53 76 118q17 45 31 109l53 249q9 43 9 67q0 21 -7 30q-22 25 -93 25h-95l30 137h456l-150 -703q-9 -44 -9 -66t8 -30q21 -25 93 -25h53l-29 -137h-415l36 169 q-118 -110 -188 -147q-101 -53 -202 -53q-105 0 -176 51q-68 48 -68 136q0 67 21 167l81 379q9 43 9 67q0 21 -7 30q-22 25 -93 25h-47z" />
<glyph unicode="v" horiz-adv-x="1129" vert-adv-y="2457" d="M40 824l29 137h529l-29 -137h-34q-56 0 -76 -23q-17 -18 -17 -69q0 -20 3 -46l56 -444l263 463q29 51 29 81q0 38 -82 38h-49l29 137h474l-29 -137h-51q-80 0 -150 -124l-395 -700h-259l-95 721q-7 53 -23 72q-24 31 -65 31h-58z" />
<glyph unicode="w" horiz-adv-x="1678" vert-adv-y="2457" d="M50 824l29 137h504l-29 -137h-49q-46 0 -61 -16q-18 -20 -18 -65q0 -20 2 -50l40 -470l272 478q29 51 29 81q0 23 -16 33q-15 9 -65 9h-38l29 137h492l-29 -137h-60q-44 0 -61 -19q-16 -18 -16 -62q0 -13 2 -29l55 -502l248 461q44 81 44 114q0 37 -56 37h-51l29 137h423 l-29 -137h-44q-46 0 -78 -37t-64 -96l-377 -691h-239l-59 537l-298 -537h-244l-79 706q-8 68 -23 89q-20 29 -72 29h-43z" />
<glyph unicode="x" horiz-adv-x="1312" vert-adv-y="2457" d="M-135 0l29 137h50q80 0 190 82l336 254l-186 254q-40 54 -70 73q-42 24 -93 24h-41l29 137h588l-29 -137h-44q-64 0 -64 -35q0 -11 21 -41l89 -127l148 114q57 44 57 63q0 26 -61 26h-43l29 137h515l-29 -137h-42q-41 0 -99 -25q-38 -17 -119 -79l-267 -204l203 -271 q35 -45 77 -79q37 -29 90 -29h42l-29 -137h-603l29 137h43q83 0 83 34q0 18 -19 43l-114 150l-202 -152q-46 -35 -46 -50q0 -25 51 -25h78l-29 -137h-548z" />
<glyph unicode="y" horiz-adv-x="1190" vert-adv-y="2457" d="M-199 -232q0 75 42 138q63 94 170 94q65 0 95 -41q20 -27 20 -64q0 -62 -43 -106q-30 -30 -65 -38q-28 -7 -71 -8q22 -28 37 -37q20 -12 54 -12q104 0 198 109q55 65 138 197l-165 701q-15 64 -38 90q-30 33 -87 33h-61l29 137h589l-29 -137h-70q-82 0 -82 -66 q0 -15 3 -28l95 -444l257 425q29 47 29 77q0 36 -81 36h-55l29 137h491l-29 -137h-45q-49 0 -88 -32q-45 -36 -93 -114l-347 -564q-187 -304 -295 -413q-74 -74 -141 -106q-71 -33 -156 -33q-121 0 -185 72q-50 55 -50 134z" />
<glyph unicode="z" horiz-adv-x="1027" vert-adv-y="2457" d="M-104 0l31 148l763 676h-214q-107 0 -156 -32q-55 -37 -87 -123q-13 -38 -38 -133h-143l90 425h859l-33 -154l-752 -670h177q141 0 195 25q70 33 111 134q18 44 52 163h143l-97 -459h-901z" />
<glyph unicode="{" horiz-adv-x="783" vert-adv-y="2457" d="M23 -199q0 52 13 113l71 334q11 51 11 86q0 79 -86 99l27 124q62 13 96 49q37 39 55 126l74 351q34 158 123 224q60 45 150 58q52 7 138 7q43 0 151 -3l-27 -129q-114 0 -134 -2q-67 -7 -101 -47q-18 -22 -40 -122l-69 -323q-25 -119 -77 -179q-29 -33 -100 -72 q49 -36 67 -74q15 -33 15 -77q0 -45 -12 -102l-68 -319q-16 -83 -16 -104q0 -47 52 -62q32 -9 115 -9q15 0 51 1l-27 -129q-89 -4 -160 -4q-147 0 -206 31q-86 44 -86 154z" />
<glyph unicode="|" horiz-adv-x="1024" vert-adv-y="2457" d="M169 -341l363 1706h250l-363 -1706h-250z" />
<glyph unicode="}" horiz-adv-x="783" vert-adv-y="2457" d="M-144 -381l27 129h52q88 0 116 8q56 16 78 58q10 19 30 106l68 323q26 119 78 179q28 33 99 72q-48 36 -66 74q-15 33 -15 76q0 49 11 103l68 319q16 83 16 103q0 54 -66 65q-35 6 -152 6l28 129q94 3 159 3q147 0 206 -30q86 -45 86 -155q0 -52 -13 -113l-71 -334 q-10 -48 -10 -86q0 -79 85 -98l-26 -124q-63 -14 -97 -50q-36 -38 -54 -125l-75 -351q-34 -158 -123 -225q-60 -45 -149 -57q-54 -8 -139 -8q-46 0 -151 3z" />
<glyph unicode="~" horiz-adv-x="1365" vert-adv-y="2457" d="M313 1255q167 260 347 260q75 0 214 -72q76 -38 97 -46q39 -14 69 -14q86 0 191 137l103 -102q-68 -103 -123 -157q-109 -105 -227 -105q-45 0 -105 25q-30 13 -97 46q-127 63 -177 63q-61 0 -115 -53q-32 -30 -74 -84z" />
<glyph unicode="&#xa0;" horiz-adv-x="512" vert-adv-y="2457" />
<glyph unicode="&#xa1;" horiz-adv-x="631" vert-adv-y="2457" d="M-51 -350q0 48 29 141q7 24 64 190q111 324 188 585h126q-32 -225 -67 -585q-18 -180 -23 -216q-17 -125 -65 -171q-47 -45 -130 -45q-122 0 -122 101zM196 809q0 53 35 101q59 81 155 81q60 0 94 -44q25 -32 25 -79q0 -44 -25 -84q-17 -29 -45 -51q-57 -44 -122 -44 q-58 0 -93 44q-24 32 -24 76z" />
<glyph unicode="&#xa2;" vert-adv-y="2457" d="M101 374q0 143 59 277q81 185 268 294q148 87 335 87q65 0 113 -12q32 -8 94 -35l131 179h120l-173 -238q53 -81 53 -141q0 -75 -48 -142q-59 -82 -158 -82q-46 0 -90 33l-295 -404q49 -7 80 -7q108 0 185 85q47 52 90 167h160q-42 -129 -76 -188q-70 -120 -182 -182 q-120 -66 -248 -66q-51 0 -138 11l-155 -213h-120l179 247q-79 54 -114 95q-70 84 -70 235zM378 376q0 -45 11 -74q9 -24 38 -64l386 529q33 30 52 40q18 8 58 17q-46 40 -75 54q-39 19 -101 19q-172 0 -274 -168q-38 -63 -64 -154q-31 -105 -31 -199z" />
<glyph unicode="&#xa3;" vert-adv-y="2457" d="M-25 135q104 69 148 111q78 75 112 162q19 49 38 147h-201l25 120h164q-34 122 -34 184q0 161 142 280q162 135 428 135q217 0 342 -100q82 -66 82 -160q0 -83 -52 -146q-65 -77 -164 -77q-69 0 -104 45q-21 26 -21 64q0 46 28 86q26 38 108 70q-49 48 -78 63 q-48 27 -124 27q-134 0 -217 -88q-63 -68 -63 -160q0 -30 34 -223h257l-25 -120h-243q-24 -78 -49 -117q-41 -63 -92 -108q-30 -27 -97 -66l5 -15q130 53 193 53q86 0 192 -51q73 -36 99 -45q17 -7 40 -7q58 0 96 46q34 41 66 154h111q-29 -142 -59 -206q-51 -108 -133 -167 q-86 -62 -190 -62q-59 0 -107 17q-44 17 -117 53q-126 61 -209 61q-96 0 -174 -45q-52 -30 -116 -79z" />
<glyph unicode="&#xa4;" horiz-adv-x="1365" vert-adv-y="2457" d="M-23 272l248 205q-44 89 -44 187q0 199 166 381l-164 207l152 126l163 -207q161 94 310 94q147 0 265 -92l249 204l97 -125l-247 -204q46 -102 46 -191q0 -193 -164 -379l162 -206l-150 -125l-162 205q-160 -96 -310 -96q-143 0 -271 95l-248 -204zM394 698 q0 -86 49 -149q69 -88 189 -88q100 0 192 58q102 64 151 171q30 66 30 133q0 87 -49 149q-69 88 -190 88q-100 0 -191 -58q-102 -64 -151 -171q-30 -66 -30 -133z" />
<glyph unicode="&#xa5;" horiz-adv-x="1481" vert-adv-y="2457" d="M151 1097l30 141h656l-30 -141h-92q-52 0 -70 -13q-19 -13 -19 -38q0 -20 14 -48l145 -290l286 300q36 38 36 61q0 28 -59 28h-109l30 141h574l-30 -141h-42q-54 0 -88 -19q-30 -17 -74 -63l-238 -248h190l-25 -119h-278l-108 -113h348l-25 -119h-360l-34 -161 q-10 -46 -10 -63q0 -27 17 -38q19 -13 91 -13h108l-30 -141h-721l30 141h108q84 0 108 20q23 20 38 94l35 161h-360l25 119h349l-53 113h-285l25 119h205l-95 203q-26 57 -54 88q-35 39 -98 39h-61z" />
<glyph unicode="&#xa6;" horiz-adv-x="1024" vert-adv-y="2457" d="M169 -341l139 655h250l-139 -655h-250zM382 659l150 706h250l-150 -706h-250z" />
<glyph unicode="&#xa7;" horiz-adv-x="1210" vert-adv-y="2457" d="M-39 -206q0 71 52 129q59 65 137 65q60 0 95 -38q22 -24 22 -58q0 -62 -37 -104q-21 -24 -87 -54q60 -32 98 -44q39 -12 93 -12q165 0 263 87q40 36 61 93q15 41 15 77q0 64 -60 106q-34 24 -103 50l-152 57q-174 65 -241 124q-71 61 -71 165q0 139 109 245 q74 73 220 129q-73 61 -96 106q-26 49 -26 104q0 64 35 133q68 134 216 198q121 53 276 53q195 0 289 -88q50 -47 50 -113q0 -68 -49 -125q-52 -60 -127 -60q-58 0 -89 38q-24 29 -24 63q0 76 96 141q-95 36 -174 36q-143 0 -230 -76q-64 -56 -64 -139q0 -49 44 -83 q38 -30 117 -61l233 -94q228 -93 228 -271q0 -124 -107 -228q-65 -64 -217 -133q60 -43 92 -81q43 -52 43 -127q0 -92 -56 -189q-72 -124 -222 -193q-129 -60 -280 -60q-184 0 -294 85q-78 60 -78 147zM253 523q0 -42 28 -70q25 -27 82 -52l266 -117q109 22 163 63 q77 60 77 149q0 57 -39 93q-32 29 -90 52l-238 96q-87 -11 -132 -36q-117 -66 -117 -178z" />
<glyph unicode="&#xa8;" horiz-adv-x="1024" vert-adv-y="2457" d="M302 1263q0 41 23 78q18 28 44 48q56 43 115 43q54 0 86 -43q22 -29 22 -71q0 -51 -31 -95q-55 -76 -144 -76q-58 0 -91 41q-24 30 -24 75zM689 1263q0 41 23 78q18 28 44 48q56 43 116 43q53 0 85 -43q22 -30 22 -71q0 -51 -31 -95q-55 -76 -145 -76q-57 0 -90 41 q-24 30 -24 75z" />
<glyph unicode="&#xa9;" horiz-adv-x="1620" vert-adv-y="2457" d="M57 541q0 154 73 310q119 255 372 408q223 135 469 135q199 0 353 -104q154 -105 212 -285q27 -86 27 -179q0 -156 -72 -311q-117 -253 -368 -407q-222 -137 -466 -137q-203 0 -357 102q-156 104 -215 286q-28 87 -28 182zM193 561q0 -176 102 -302q67 -83 170 -128 q100 -45 213 -45q202 0 386 115q206 128 303 341q60 131 60 263q0 174 -101 300q-68 84 -166 128q-102 45 -215 45q-201 0 -385 -113q-208 -127 -307 -341q-60 -131 -60 -263zM404 585q0 201 143 350q155 160 352 160q77 0 132 -26q26 -13 74 -50l35 65h95l-69 -326h-102 q1 31 1 48q0 71 -29 115q-43 67 -138 67q-136 0 -223 -137q-35 -54 -57 -137q-21 -77 -21 -148q0 -91 54 -137q48 -40 121 -40q86 0 151 57q53 46 99 157h112q-39 -116 -75 -167q-119 -165 -331 -165q-166 0 -255 108q-69 85 -69 206z" />
<glyph unicode="&#xaa;" horiz-adv-x="744" vert-adv-y="2457" d="M62 778q0 101 98 163q60 37 234 75q87 19 111 53q17 25 17 60q0 65 -111 65q-61 0 -105 -23q58 -8 58 -55q0 -39 -29 -67q-35 -33 -86 -33q-52 0 -76 32q-14 19 -14 45q0 73 75 124q82 56 215 56q139 0 194 -44q43 -35 43 -82q0 -28 -15 -97l-53 -251q-2 -8 -2 -18 q0 -17 19 -17q17 0 29 24q14 27 30 109h92q-28 -124 -55 -164q-54 -82 -162 -82q-63 0 -96 27q-19 16 -29 57q-45 -39 -81 -56q-62 -29 -143 -29t-123 42q-35 35 -35 86zM254 810q0 -46 60 -46q55 0 98 34q45 36 61 108l12 58q-43 -18 -128 -48q-103 -36 -103 -106z" />
<glyph unicode="&#xab;" horiz-adv-x="986" vert-adv-y="2457" d="M78 463q0 71 158 246l106 117h146l-87 -137q-106 -168 -106 -237q0 -70 20 -167l29 -138h-147l-56 117q-63 133 -63 199zM477 463q0 71 158 246l106 117h147l-88 -137q-106 -168 -106 -237q0 -70 21 -167l28 -138h-147l-55 117q-64 133 -64 199z" />
<glyph unicode="&#xac;" horiz-adv-x="1024" vert-adv-y="2457" d="M1 366l46 218h888l-124 -584h-243l78 366h-645z" />
<glyph unicode="&#xad;" horiz-adv-x="551" vert-adv-y="2457" d="M-65 378l46 217h551l-46 -217h-551z" />
<glyph unicode="&#xae;" horiz-adv-x="1620" vert-adv-y="2457" d="M57 541q0 154 73 310q119 255 372 408q223 135 469 135q199 0 353 -104q154 -105 212 -285q27 -86 27 -179q0 -156 -72 -311q-117 -253 -368 -407q-222 -137 -466 -137q-203 0 -357 102q-156 104 -215 286q-28 87 -28 182zM193 561q0 -176 102 -302q67 -83 170 -128 q100 -45 213 -45q202 0 386 115q206 128 303 341q60 131 60 263q0 174 -101 300q-68 84 -166 128q-102 45 -215 45q-201 0 -385 -113q-208 -127 -307 -341q-60 -131 -60 -263zM324 294l21 100h52q49 0 62 11q12 10 22 53l95 450q6 27 6 37q0 13 -9 19q-10 7 -53 7h-52 l21 101h472q151 0 213 -48q45 -35 45 -101q0 -104 -84 -172q-57 -45 -154 -64q97 -24 97 -99q0 -19 -7 -65l-10 -68q-3 -20 -3 -38q0 -20 21 -20q16 0 25 19q12 28 29 109h88q-24 -121 -56 -172q-51 -81 -163 -81q-130 0 -130 115q0 14 3 32l16 88q6 35 6 62q0 45 -27 62 q-34 23 -123 23h-47l-42 -196q-6 -27 -6 -37q0 -14 9 -20q10 -7 53 -7h62l-22 -100h-430zM721 755h130q179 0 179 138q0 38 -22 56q-27 22 -115 22h-126z" />
<glyph unicode="&#xaf;" horiz-adv-x="1024" vert-adv-y="2457" d="M318 1205l36 168h609l-36 -168h-609z" />
<glyph unicode="&#xb0;" horiz-adv-x="819" vert-adv-y="2457" d="M102 1094q0 142 104 231q92 80 210 80q132 0 220 -97q80 -87 80 -216q0 -131 -86 -220q-90 -93 -222 -93q-142 0 -233 108q-73 87 -73 207zM217 1091q0 -72 49 -129q57 -66 143 -66q79 0 132 53q58 59 58 143q0 78 -51 135q-56 61 -135 61q-80 0 -136 -54 q-60 -59 -60 -143z" />
<glyph unicode="&#xb1;" horiz-adv-x="1124" vert-adv-y="2457" d="M20 753v113h485v490h113v-490h485v-113h-485v-489h-113v489h-485zM22 0v113h1073v-113h-1073z" />
<glyph unicode="&#xb2;" horiz-adv-x="803" vert-adv-y="2457" d="M31 541q23 111 63 162q49 66 146 118q58 31 175 74q81 29 111 55q62 53 62 122q0 52 -41 79q-43 29 -108 29q-66 0 -121 -32q-25 -15 -59 -56q31 7 51 7q33 0 55 -24q13 -14 13 -34q0 -41 -32 -73q-36 -36 -92 -36q-60 0 -86 41q-14 22 -14 51q0 78 83 148q106 88 264 88 q156 0 236 -74q44 -40 44 -110q0 -102 -80 -170q-65 -55 -218 -85q-143 -29 -206 -59q-57 -28 -109 -89q66 30 102 30q61 0 173 -23q75 -15 105 -15q54 0 86 41q16 21 39 89h73q-16 -75 -34 -115.5t-51 -76.5q-70 -77 -164 -77q-65 0 -142 31q-17 6 -93 45q-32 17 -70 17 q-58 0 -87 -78h-74z" />
<glyph unicode="&#xb3;" horiz-adv-x="803" vert-adv-y="2457" d="M66 694q0 48 33 87q42 49 108 49q86 0 86 -70q0 -35 -27 -64q-31 -34 -99 -35q38 -34 71 -44q40 -11 86 -11q118 0 178 62q42 44 42 99q0 66 -48 89q-42 19 -140 19l17 83q118 3 163 28q65 35 65 107q0 35 -25 59q-37 35 -109 35q-69 0 -152 -43q64 -9 64 -57 q0 -30 -24 -57q-34 -41 -94 -41q-90 0 -90 74q0 65 81 123q105 74 269 74q127 0 200 -43q67 -39 67 -110q0 -70 -64 -123q-46 -39 -165 -63q101 -21 139 -55q41 -36 41 -93q0 -58 -42 -114q-102 -132 -362 -132q-143 0 -221 65q-48 41 -48 102z" />
<glyph unicode="&#xb4;" horiz-adv-x="1024" vert-adv-y="2457" d="M394 1106l339 294q108 94 175 94q30 0 53 -14q35 -23 35 -71q0 -83 -131 -142l-358 -161h-113z" />
<glyph unicode="&#xb5;" horiz-adv-x="1180" vert-adv-y="2457" d="M68 -302q0 52 35 187q24 90 24 157v982h180v-678q0 -101 39 -156q24 -33 69 -53q38 -18 80 -18q72 0 141 50q37 26 88 98l-2 757h183l-1 -756q0 -115 46 -159q28 -26 57 -26q39 0 71 51q23 37 28 90l55 -2q-19 -104 -68 -165q-68 -84 -175 -84q-96 0 -146 70 q-27 38 -47 122q-163 -192 -316 -192q-72 0 -140 45q-22 15 -62 49l3 -86q32 -140 44 -175q15 -46 15 -106q0 -70 -30 -110q-30 -39 -69 -39q-40 0 -68 34q-34 41 -34 113z" />
<glyph unicode="&#xb6;" horiz-adv-x="1234" vert-adv-y="2457" d="M120 917q0 113 59 217q86 152 245 199q111 32 248 32h643l-38 -177h-141l-294 -1381h-195l294 1381h-184l-293 -1381h-195l180 846q-20 -1 -26 -1q-144 0 -231 80q-72 66 -72 185z" />
<glyph unicode="&#xb7;" horiz-adv-x="630" vert-adv-y="2457" d="M117 452q0 45 24 84q18 30 46 51q57 44 122 44q58 0 93 -44q24 -31 24 -76q0 -52 -35 -100q-59 -82 -155 -82q-60 0 -94 44q-25 32 -25 79z" />
<glyph unicode="&#xb8;" horiz-adv-x="1023" vert-adv-y="2457" d="M13 -372l69 101q112 -79 216 -79q53 0 83 32q23 25 23 65q0 24 -14 37q-21 21 -58 21q-27 0 -68 -8l43 203h87l-25 -115q48 7 86 7q76 0 112 -55q20 -31 20 -74q0 -92 -71 -159q-72 -68 -194 -68q-132 0 -309 92z" />
<glyph unicode="&#xb9;" horiz-adv-x="803" vert-adv-y="2457" d="M154 546l17 82h57q70 0 91 15q16 12 24 52l78 365h-158l17 81q104 9 147 26q46 18 99 80h104l-118 -554q-5 -24 -5 -35q0 -14 10 -21q14 -9 70 -9h66l-17 -82h-482z" />
<glyph unicode="&#xba;" horiz-adv-x="769" vert-adv-y="2457" d="M87 888q0 78 34 154q52 117 176 182q94 49 215 49q146 0 225 -78q63 -63 63 -160q0 -159 -117 -269q-122 -115 -307 -115q-147 0 -226 78q-63 63 -63 159zM274 870q0 -121 124 -121q105 0 159 88q56 92 56 216q0 122 -124 122q-106 0 -159 -88q-56 -92 -56 -217z" />
<glyph unicode="&#xbb;" horiz-adv-x="986" vert-adv-y="2457" d="M8 147l87 138q106 167 106 236q0 71 -20 168l-29 137h147l56 -117q64 -134 64 -199q0 -70 -159 -246l-105 -117h-147zM407 147l87 138q106 166 106 236q0 73 -20 168l-28 137h146l56 -117q64 -134 64 -199q0 -70 -159 -246l-105 -117h-147z" />
<glyph unicode="&#xbc;" horiz-adv-x="1942" vert-adv-y="2457" d="M154 546l17 82h57q70 0 91 15q16 12 24 52l78 365h-158l17 81q104 9 147 26q46 18 99 80h104l-118 -554q-5 -24 -5 -35q0 -14 10 -21q14 -9 70 -9h66l-17 -82h-482zM315 -35l1134 1309h162l-1141 -1309h-155zM1075 193l19 87l516 420h124l-87 -409h150l-21 -98h-150 l-10 -49q-4 -17 -4 -28q0 -34 68 -34h72l-17 -82h-454l18 82h46q64 0 84 11q16 10 25 51l10 49h-389zM1236 291h249l58 249z" />
<glyph unicode="&#xbd;" horiz-adv-x="1942" vert-adv-y="2457" d="M154 546l17 82h57q70 0 91 15q16 12 24 52l78 365h-158l17 81q104 9 147 26q46 18 99 80h104l-118 -554q-5 -24 -5 -35q0 -14 10 -21q14 -9 70 -9h66l-17 -82h-482zM315 -35l1134 1309h162l-1141 -1309h-155zM1054 -5q23 110 62 162q50 66 147 117q59 32 175 74 q81 30 111 55q62 53 62 122q0 52 -41 79q-43 29 -108 29q-66 0 -121 -32q-25 -15 -59 -55q31 7 51 7q33 0 55 -24q13 -14 13 -34q0 -41 -32 -73q-36 -36 -92 -36q-61 0 -86 41q-14 22 -14 51q0 78 84 147q105 88 263 88q156 0 236 -74q44 -40 44 -110q0 -102 -80 -170 q-65 -54 -218 -85q-142 -27 -206 -58q-58 -29 -109 -89q66 30 102 30q60 0 173 -23q75 -15 105 -15q54 0 85 41q17 21 40 89h73q-21 -93 -45 -136q-39 -71 -103 -106q-48 -27 -101 -27q-65 0 -143 31q-16 6 -92 45q-33 17 -71 17q-57 0 -86 -78h-74z" />
<glyph unicode="&#xbe;" horiz-adv-x="1942" vert-adv-y="2457" d="M66 694q0 48 33 87q42 49 108 49q86 0 86 -70q0 -35 -27 -64q-31 -34 -99 -35q38 -34 71 -44q40 -11 86 -11q118 0 178 62q42 44 42 99q0 66 -48 89q-42 19 -140 19l17 83q118 3 163 28q65 35 65 107q0 35 -25 59q-37 35 -109 35q-69 0 -152 -43q64 -9 64 -57 q0 -30 -24 -57q-34 -41 -94 -41q-90 0 -90 74q0 65 81 123q105 74 269 74q127 0 200 -43q67 -39 67 -110q0 -70 -64 -123q-46 -39 -165 -63q101 -21 139 -55q41 -36 41 -93q0 -58 -42 -114q-102 -132 -362 -132q-143 0 -221 65q-48 41 -48 102zM315 -35l1134 1309h162 l-1140 -1309h-156zM1076 193l18 87l516 420h124l-87 -409h150l-21 -98h-150l-10 -49q-4 -18 -4 -28q0 -34 69 -34h72l-18 -82h-453l17 82h46q64 0 84 11q16 10 25 51l11 49h-389zM1236 291h249l58 249z" />
<glyph unicode="&#xbf;" horiz-adv-x="1017" vert-adv-y="2457" d="M-128 -147q0 142 110 256q53 55 151 119q14 9 149 93q92 57 137 120q28 40 52 127h130q-24 -150 -70 -220q-45 -68 -170 -177q-97 -85 -123 -115q-72 -86 -72 -182q0 -76 47 -119q62 -56 164 -56t188 63q52 37 76 80q19 33 39 94q-74 -48 -125 -48q-63 0 -89 46 q-15 25 -15 57q0 63 49 117q66 71 159 71q83 0 129 -67q32 -47 32 -115q0 -153 -121 -278q-165 -170 -431 -170q-225 0 -333 127q-63 74 -63 177zM443 808q0 53 35 101q59 81 155 81q60 0 94 -44q25 -32 25 -79q0 -44 -24 -84q-18 -29 -46 -51q-57 -44 -122 -44 q-59 0 -93 44q-24 32 -24 76z" />
<glyph unicode="&#xc0;" horiz-adv-x="1464" vert-adv-y="2457" d="M-175 0l33 155h43q76 0 122 27q43 26 87 104l609 1079h288l177 -1077q12 -70 19 -86q16 -35 54 -43q18 -4 63 -4h41l-33 -155h-705l33 155h111q74 0 96 12q30 16 30 54q0 19 -5 54l-25 160h-450l-97 -172q-30 -53 -30 -73q0 -16 13 -25q14 -10 88 -10h107l-33 -155h-636z M503 596h338l-76 473zM649 1665q0 37 32 72q37 40 84 40q46 0 95 -53l228 -248h-110l-260 105q-69 28 -69 84z" />
<glyph unicode="&#xc1;" horiz-adv-x="1464" vert-adv-y="2457" d="M-175 0l33 155h43q76 0 122 27q43 26 87 104l609 1079h288l177 -1077q12 -70 19 -86q16 -35 54 -43q18 -4 63 -4h41l-33 -155h-705l33 155h111q74 0 96 12q30 16 30 54q0 19 -5 54l-25 160h-450l-97 -172q-30 -53 -30 -73q0 -16 13 -25q14 -10 88 -10h107l-33 -155h-636z M503 596h338l-76 473zM717 1476l334 248q73 54 119 54q34 0 56 -25q18 -22 18 -51q0 -45 -41 -81q-30 -26 -71 -40l-304 -105h-111z" />
<glyph unicode="&#xc2;" horiz-adv-x="1464" vert-adv-y="2457" d="M-175 0l33 155h43q76 0 122 27q43 26 87 104l609 1079h288l177 -1077q12 -70 19 -86q16 -35 54 -43q18 -4 63 -4h41l-33 -155h-705l33 155h111q74 0 96 12q30 16 30 54q0 19 -5 54l-25 160h-450l-97 -172q-30 -53 -30 -73q0 -16 13 -25q14 -10 88 -10h107l-33 -155h-636z M503 596h338l-76 473zM558 1476l256 282h237l138 -282h-96l-196 113l-244 -113h-95z" />
<glyph unicode="&#xc3;" horiz-adv-x="1464" vert-adv-y="2457" d="M-175 0l33 155h43q76 0 122 27q43 26 87 104l609 1079h288l177 -1077q12 -70 19 -86q16 -35 54 -43q18 -4 63 -4h41l-33 -155h-705l33 155h111q74 0 96 12q30 16 30 54q0 19 -5 54l-25 160h-450l-97 -172q-30 -53 -30 -73q0 -16 13 -25q14 -10 88 -10h107l-33 -155h-636z M503 596h338l-76 473zM592 1476q46 105 80 148q80 100 191 100q36 0 73 -11l109 -30q20 -6 42 -6q34 0 56.5 17.5t49.5 63.5h77q-54 -127 -115 -183q-71 -64 -153 -64q-31 0 -62 9l-106 30q-36 10 -59 10q-63 0 -105 -84h-78z" />
<glyph unicode="&#xc4;" horiz-adv-x="1464" vert-adv-y="2457" d="M-175 0l33 155h43q76 0 122 27q43 26 87 104l609 1079h288l177 -1077q12 -70 19 -86q16 -35 54 -43q18 -4 63 -4h41l-33 -155h-705l33 155h111q74 0 96 12q30 16 30 54q0 19 -5 54l-25 160h-450l-97 -172q-30 -53 -30 -73q0 -16 13 -25q14 -10 88 -10h107l-33 -155h-636z M503 596h338l-76 473zM564 1591q0 41 22 76q17 27 43 47q54 42 112 42q51 0 83 -42q24 -31 24 -71q0 -46 -32 -90q-55 -75 -143 -75q-55 0 -86 40q-23 29 -23 73zM945 1591q0 41 23 76q16 27 42 47q54 42 112 42q52 0 84 -42q24 -31 24 -71q0 -46 -33 -90q-54 -75 -143 -75 q-55 0 -86 40q-23 29 -23 73z" />
<glyph unicode="&#xc5;" horiz-adv-x="1464" vert-adv-y="2457" d="M-175 0l33 155h43q76 0 122 27q43 26 87 104l609 1079h288l177 -1077q12 -70 19 -86q16 -35 54 -43q18 -4 63 -4h41l-33 -155h-705l33 155h111q74 0 96 12q30 16 30 54q0 19 -5 54l-25 160h-450l-97 -172q-30 -53 -30 -73q0 -16 13 -25q14 -10 88 -10h107l-33 -155h-636z M503 596h338l-76 473zM704 1651q0 65 35 122q26 42 67 74q81 63 176 63q86 0 137 -63q37 -46 37 -110q0 -75 -53 -148q-45 -63 -116 -96q-55 -26 -113 -26q-84 0 -134 68q-36 48 -36 116zM827 1670q0 -30 16 -52q23 -29 62 -29q75 0 112 68q14 26 14 51q0 29 -17 51 q-20 28 -60 30q-50 3 -94 -43q-33 -33 -33 -76z" />
<glyph unicode="&#xc6;" horiz-adv-x="2248" vert-adv-y="2457" d="M-175 0l33 155h33q60 0 109 26q73 39 123 105l601 799q49 65 49 87q0 15 -13 24q-20 14 -101 14h-95l33 155h1640l-116 -542h-155q20 113 20 173q0 130 -61 173q-59 41 -236 41h-327l-89 -419h77q147 0 194 59q26 33 75 189h156l-146 -683h-155q15 105 15 156 q0 79 -42 104q-32 19 -128 19h-79l-102 -480h357q144 0 215 43q80 50 142 199q27 63 62 182h155l-123 -579h-1352l33 155h96q92 0 119 23q25 21 42 103l43 199h-422l-141 -191q-63 -86 -63 -104q0 -30 82 -30h96l-33 -155h-621zM621 635h338l122 575h-40z" />
<glyph unicode="&#xc7;" horiz-adv-x="1444" vert-adv-y="2457" d="M53 509q0 181 75 353q113 259 366 419q196 124 415 124q132 0 227 -46q50 -24 139 -95l65 122h146l-118 -558h-156q2 55 2 81q0 125 -51 205q-79 124 -251 124q-247 0 -404 -252q-63 -100 -103 -247q-38 -141 -38 -269q0 -165 98 -250q84 -74 218 -74q154 0 274 105 q69 61 110 139q31 59 64 138h173q-65 -194 -126 -280q-204 -288 -562 -288h-19l-17 -80q47 7 86 7q77 0 113 -55q22 -32 22 -76q0 -85 -71 -152q-73 -68 -197 -68q-132 0 -308 92l68 101q112 -79 215 -79q54 0 84 32q22 24 22 60q0 58 -72 58q-27 0 -67 -8l37 174 q-161 22 -271 113q-188 154 -188 430z" />
<glyph unicode="&#xc8;" horiz-adv-x="1536" vert-adv-y="2457" d="M-94 0l33 155h79q92 0 119 23q25 21 43 103l170 804q11 50 11 69q0 29 -19 42q-20 14 -100 14h-79l33 155h1343l-116 -542h-155q20 111 20 172q0 131 -61 173q-59 42 -236 42h-327l-89 -419h77q147 0 193 59q26 32 76 189h155l-145 -683h-155q15 106 15 157q0 78 -42 104 q-32 19 -128 19h-79l-102 -481h356q145 0 215 43q81 50 143 199q26 63 62 182h155l-123 -579h-1342zM685 1665q0 37 32 72q37 40 84 40q45 0 94 -53l229 -248h-111l-260 105q-68 28 -68 84z" />
<glyph unicode="&#xc9;" horiz-adv-x="1536" vert-adv-y="2457" d="M-94 0l33 155h79q92 0 119 23q25 21 43 103l170 804q11 50 11 69q0 29 -19 42q-20 14 -100 14h-79l33 155h1343l-116 -542h-155q20 111 20 172q0 131 -61 173q-59 42 -236 42h-327l-89 -419h77q147 0 193 59q26 32 76 189h155l-145 -683h-155q15 106 15 157q0 78 -42 104 q-32 19 -128 19h-79l-102 -481h356q145 0 215 43q81 50 143 199q26 63 62 182h155l-123 -579h-1342zM752 1476l335 248q72 54 118 54q34 0 56 -25q18 -22 18 -51q0 -45 -41 -81q-30 -26 -71 -40l-304 -105h-111z" />
<glyph unicode="&#xca;" horiz-adv-x="1536" vert-adv-y="2457" d="M-94 0l33 155h79q92 0 119 23q25 21 43 103l170 804q11 50 11 69q0 29 -19 42q-20 14 -100 14h-79l33 155h1343l-116 -542h-155q20 111 20 172q0 131 -61 173q-59 42 -236 42h-327l-89 -419h77q147 0 193 59q26 32 76 189h155l-145 -683h-155q15 106 15 157q0 78 -42 104 q-32 19 -128 19h-79l-102 -481h356q145 0 215 43q81 50 143 199q26 63 62 182h155l-123 -579h-1342zM621 1476l257 282h237l137 -282h-95l-196 113l-245 -113h-95z" />
<glyph unicode="&#xcb;" horiz-adv-x="1536" vert-adv-y="2457" d="M-94 0l33 155h79q92 0 119 23q25 21 43 103l170 804q11 50 11 69q0 29 -19 42q-20 14 -100 14h-79l33 155h1343l-116 -542h-155q20 111 20 172q0 131 -61 173q-59 42 -236 42h-327l-89 -419h77q147 0 193 59q26 32 76 189h155l-145 -683h-155q15 106 15 157q0 78 -42 104 q-32 19 -128 19h-79l-102 -481h356q145 0 215 43q81 50 143 199q26 63 62 182h155l-123 -579h-1342zM634 1591q0 40 23 76q16 27 42 47q53 42 112 42q51 0 83 -42q24 -31 24 -71q0 -46 -32 -90q-55 -75 -143 -75q-55 0 -86 40q-23 30 -23 73zM1015 1591q0 40 23 76 q16 27 42 47q54 42 112 42q52 0 84 -42q24 -30 24 -71q0 -46 -33 -90q-54 -75 -143 -75q-54 0 -86 40q-23 30 -23 73z" />
<glyph unicode="&#xcc;" horiz-adv-x="844" vert-adv-y="2457" d="M-91 0l33 155h87q92 0 119 22q25 22 43 104l170 803q11 50 11 70q0 29 -19 42q-21 14 -100 14h-87l33 155h736l-33 -155h-88q-91 0 -118 -23q-26 -21 -43 -103l-171 -803q-10 -49 -10 -70q0 -30 19 -42q20 -14 99 -14h88l-33 -155h-736zM338 1665q0 37 32 72q37 40 84 40 q46 0 95 -53l229 -248h-111l-260 105q-69 28 -69 84z" />
<glyph unicode="&#xcd;" horiz-adv-x="844" vert-adv-y="2457" d="M-91 0l33 155h87q92 0 119 22q25 22 43 104l170 803q11 50 11 70q0 29 -19 42q-21 14 -100 14h-87l33 155h736l-33 -155h-88q-91 0 -118 -23q-26 -21 -43 -103l-171 -803q-10 -49 -10 -70q0 -30 19 -42q20 -14 99 -14h88l-33 -155h-736zM406 1476l334 248q73 54 119 54 q34 0 56 -25q18 -22 18 -51q0 -45 -41 -81q-30 -26 -71 -40l-304 -105h-111z" />
<glyph unicode="&#xce;" horiz-adv-x="844" vert-adv-y="2457" d="M-91 0l33 155h87q92 0 119 22q25 22 43 104l170 803q11 50 11 70q0 29 -19 42q-21 14 -100 14h-87l33 155h736l-33 -155h-88q-91 0 -118 -23q-26 -21 -43 -103l-171 -803q-10 -49 -10 -70q0 -30 19 -42q20 -14 99 -14h88l-33 -155h-736zM275 1476l257 282h237l137 -282 h-95l-197 113l-244 -113h-95z" />
<glyph unicode="&#xcf;" horiz-adv-x="844" vert-adv-y="2457" d="M-91 0l33 155h87q92 0 119 22q25 22 43 104l170 803q11 50 11 70q0 29 -19 42q-21 14 -100 14h-87l33 155h736l-33 -155h-88q-91 0 -118 -23q-26 -21 -43 -103l-171 -803q-10 -49 -10 -70q0 -30 19 -42q20 -14 99 -14h88l-33 -155h-736zM295 1591q0 40 23 76q16 27 42 47 q53 42 112 42q51 0 83 -42q24 -31 24 -71q0 -46 -32 -90q-55 -75 -143 -75q-55 0 -86 40q-23 29 -23 73zM662 1591q0 40 23 76q16 27 42 47q54 42 112 42q52 0 84 -42q24 -31 24 -71q0 -46 -33 -90q-54 -75 -143 -75q-54 0 -86 40q-23 30 -23 73z" />
<glyph unicode="&#xd0;" horiz-adv-x="1658" vert-adv-y="2457" d="M-91 0l33 155h79q92 0 119 23q25 21 43 103l74 350h-268l30 141h268l66 312q11 51 11 70q0 29 -19 42q-21 14 -100 14h-79l33 155h775q280 0 423 -100q97 -67 143 -183q36 -91 36 -196q0 -186 -75 -379q-106 -272 -349 -405q-186 -102 -468 -102h-775zM443 155h177 q174 0 259 26q185 58 292 306q83 192 83 392q0 131 -55 222q-33 55 -108 83q-71 26 -246 26h-178l-93 -438h343l-30 -141h-343z" />
<glyph unicode="&#xd1;" horiz-adv-x="1668" vert-adv-y="2457" d="M-125 0l33 155h95q92 0 119 22q25 22 43 104l170 803q11 51 11 70q0 29 -19 42q-20 14 -100 14h-87l33 155h583l394 -991l150 710q11 50 11 70q0 29 -19 42q-20 14 -99 14h-96l33 155h646l-33 -155h-67q-92 0 -118 -23q-26 -21 -43 -103l-230 -1084h-288l-441 1112 l-177 -831q-10 -48 -10 -70q0 -29 18 -42q21 -14 100 -14h93l-33 -155h-672zM693 1476q46 105 80 148q79 100 191 100q35 0 73 -11l109 -30q20 -6 41 -6q46 0 77 35q11 14 30 46h77q-55 -127 -116 -183q-70 -64 -152 -64q-32 0 -62 9l-106 30q-36 10 -59 10q-63 0 -105 -84 h-78z" />
<glyph unicode="&#xd2;" horiz-adv-x="1647" vert-adv-y="2457" d="M54 504q0 183 77 361q116 266 378 418q208 120 472 120q320 0 487 -187q126 -142 126 -354q0 -185 -77 -362q-116 -268 -377 -418q-209 -120 -474 -120q-320 0 -485 187q-127 143 -127 355zM370 469q0 -98 44 -186q81 -159 293 -159q164 0 295 102q148 115 218 325 q59 178 59 344q0 172 -107 269q-85 77 -229 77q-164 0 -296 -103q-147 -113 -218 -324q-59 -178 -59 -345zM741 1665q0 37 32 72q37 40 84 40q45 0 94 -53l229 -248h-111l-260 105q-68 28 -68 84z" />
<glyph unicode="&#xd3;" horiz-adv-x="1647" vert-adv-y="2457" d="M54 504q0 183 77 361q116 266 378 418q208 120 472 120q320 0 487 -187q126 -142 126 -354q0 -185 -77 -362q-116 -268 -377 -418q-209 -120 -474 -120q-320 0 -485 187q-127 143 -127 355zM370 469q0 -98 44 -186q81 -159 293 -159q164 0 295 102q148 115 218 325 q59 178 59 344q0 172 -107 269q-85 77 -229 77q-164 0 -296 -103q-147 -113 -218 -324q-59 -178 -59 -345zM808 1476l335 248q71 53 118 53q34 0 56 -25q18 -22 18 -51q0 -45 -41 -80q-30 -26 -71 -40l-304 -105h-111z" />
<glyph unicode="&#xd4;" horiz-adv-x="1647" vert-adv-y="2457" d="M54 504q0 183 77 361q116 266 378 418q208 120 472 120q320 0 487 -187q126 -142 126 -354q0 -185 -77 -362q-116 -268 -377 -418q-209 -120 -474 -120q-320 0 -485 187q-127 143 -127 355zM370 469q0 -98 44 -186q81 -159 293 -159q164 0 295 102q148 115 218 325 q59 178 59 344q0 172 -107 269q-85 77 -229 77q-164 0 -296 -103q-147 -113 -218 -324q-59 -178 -59 -345zM677 1476l257 282h237l137 -282h-95l-197 113l-244 -113h-95z" />
<glyph unicode="&#xd5;" horiz-adv-x="1647" vert-adv-y="2457" d="M54 504q0 183 77 361q116 266 378 418q208 120 472 120q320 0 487 -187q126 -142 126 -354q0 -185 -77 -362q-116 -268 -377 -418q-209 -120 -474 -120q-320 0 -485 187q-127 143 -127 355zM370 469q0 -98 44 -186q81 -159 293 -159q164 0 295 102q148 115 218 325 q59 178 59 344q0 172 -107 269q-85 77 -229 77q-164 0 -296 -103q-147 -113 -218 -324q-59 -178 -59 -345zM684 1476q46 105 80 148q79 100 190 100q36 0 73 -11l109 -30q20 -6 42 -6q45 0 76 35q12 14 30 46h78q-55 -127 -116 -183q-71 -64 -152 -64q-32 0 -63 9l-106 30 q-36 10 -59 10q-62 0 -105 -84h-77z" />
<glyph unicode="&#xd6;" horiz-adv-x="1647" vert-adv-y="2457" d="M52 504q0 183 77 361q116 266 378 418q208 120 472 120q320 0 487 -187q126 -142 126 -354q0 -185 -77 -362q-116 -268 -377 -418q-209 -120 -474 -120q-320 0 -485 187q-127 143 -127 355zM368 469q0 -98 44 -186q81 -159 293 -159q164 0 295 102q148 115 218 325 q59 178 59 344q0 172 -107 269q-85 77 -229 77q-164 0 -296 -103q-147 -113 -218 -324q-59 -178 -59 -345zM682 1591q0 40 22 76q17 27 43 47q53 42 111 42q52 0 84 -42q24 -31 24 -71q0 -46 -32 -90q-55 -75 -143 -75q-55 0 -86 40q-23 29 -23 73zM1063 1591q0 40 23 76 q16 27 42 47q53 42 111 42q51 0 84 -42q24 -31 24 -71q0 -46 -32 -90q-55 -75 -143 -75q-55 0 -86 40q-23 29 -23 73z" />
<glyph unicode="&#xd7;" horiz-adv-x="1161" vert-adv-y="2457" d="M84 347l356 294l-231 293l160 132l231 -293l355 293l104 -132l-356 -293l231 -294l-159 -131l-231 293l-356 -293z" />
<glyph unicode="&#xd8;" horiz-adv-x="1647" vert-adv-y="2457" d="M-20 32l174 154q-54 102 -72 171q-24 88 -24 183q0 166 70 325q119 268 379 418q208 120 467 120q191 0 313 -62q40 -20 111 -67l182 159l77 -97l-170 -149q60 -100 79 -161q25 -78 25 -172q0 -181 -75 -354q-117 -268 -378 -418q-209 -120 -470 -120q-202 0 -326 68 q-37 20 -102 67l-184 -162zM373 491q0 -38 4 -109l836 729q-64 68 -103 91q-67 39 -172 39q-162 0 -294 -102q-144 -112 -215 -316q-56 -161 -56 -332zM427 259q55 -69 103 -96q74 -39 174 -39q165 0 296 102q147 114 217 322q58 173 58 315q0 43 -10 131z" />
<glyph unicode="&#xd9;" horiz-adv-x="1556" vert-adv-y="2457" d="M153 1210l33 155h710l-33 -155h-88q-92 0 -119 -23q-25 -21 -42 -103l-139 -653q-15 -69 -15 -119t35 -84q67 -67 194 -67q139 0 240 73q45 32 68 75q25 49 41 122l139 653q10 49 10 70q0 29 -19 42q-20 14 -99 14h-80l33 155h633l-33 -155h-62q-92 0 -119 -23 q-25 -21 -43 -103l-138 -653q-48 -222 -195 -337q-171 -134 -445 -134q-237 0 -365 116q-84 77 -84 204q0 73 17 151l138 653q11 50 11 70q0 29 -19 42q-20 14 -100 14h-65zM695 1665q0 37 32 72q37 40 84 40q45 0 94 -53l229 -248h-111l-259 105q-69 28 -69 84z" />
<glyph unicode="&#xda;" horiz-adv-x="1556" vert-adv-y="2457" d="M153 1210l33 155h710l-33 -155h-88q-92 0 -119 -23q-25 -21 -42 -103l-139 -653q-15 -69 -15 -119t35 -84q67 -67 194 -67q139 0 240 73q45 32 68 75q25 49 41 122l139 653q10 49 10 70q0 29 -19 42q-20 14 -99 14h-80l33 155h633l-33 -155h-62q-92 0 -119 -23 q-25 -21 -43 -103l-138 -653q-48 -222 -195 -337q-171 -134 -445 -134q-237 0 -365 116q-84 77 -84 204q0 73 17 151l138 653q11 50 11 70q0 29 -19 42q-20 14 -100 14h-65zM762 1476l335 248q72 54 118 54q34 0 56 -25q18 -22 18 -51q0 -46 -41 -81q-30 -26 -71 -40 l-304 -105h-111z" />
<glyph unicode="&#xdb;" horiz-adv-x="1556" vert-adv-y="2457" d="M153 1210l33 155h710l-33 -155h-88q-92 0 -119 -23q-25 -21 -42 -103l-139 -653q-15 -69 -15 -119t35 -84q67 -67 194 -67q139 0 240 73q45 32 68 75q25 49 41 122l139 653q10 49 10 70q0 29 -19 42q-20 14 -99 14h-80l33 155h633l-33 -155h-62q-92 0 -119 -23 q-25 -21 -43 -103l-138 -653q-48 -222 -195 -337q-171 -134 -445 -134q-237 0 -365 116q-84 77 -84 204q0 73 17 151l138 653q11 50 11 70q0 29 -19 42q-20 14 -100 14h-65zM631 1476l257 282h237l137 -282h-95l-196 113l-245 -113h-95z" />
<glyph unicode="&#xdc;" horiz-adv-x="1556" vert-adv-y="2457" d="M153 1210l33 155h710l-33 -155h-88q-92 0 -119 -23q-25 -21 -42 -103l-139 -653q-15 -69 -15 -119t35 -84q67 -67 194 -67q139 0 240 73q45 32 68 75q25 49 41 122l139 653q10 49 10 70q0 29 -19 42q-20 14 -99 14h-80l33 155h633l-33 -155h-62q-92 0 -119 -23 q-25 -21 -43 -103l-138 -653q-48 -222 -195 -337q-171 -134 -445 -134q-237 0 -365 116q-84 77 -84 204q0 73 17 151l138 653q11 50 11 70q0 29 -19 42q-20 14 -100 14h-65zM642 1591q0 41 22 76q17 27 43 47q54 42 112 42q51 0 83 -42q24 -31 24 -71q0 -46 -32 -90 q-55 -75 -143 -75q-55 0 -86 40q-23 29 -23 73zM1023 1591q0 41 23 76q16 27 42 47q54 42 112 42q51 0 84 -42q24 -30 24 -71q0 -46 -33 -90q-55 -75 -143 -75q-55 0 -86 40q-23 29 -23 73z" />
<glyph unicode="&#xdd;" horiz-adv-x="1495" vert-adv-y="2457" d="M112 1210l33 155h723l-33 -155h-101q-58 0 -78 -14q-21 -14 -21 -42q0 -22 16 -53l160 -321l315 332q40 42 40 66q0 32 -65 32h-120l33 155h632l-33 -155h-46q-59 0 -97 -21q-33 -18 -81 -69l-523 -549l-62 -290q-10 -49 -10 -70q0 -29 18 -42q21 -14 100 -14h119 l-33 -155h-794l33 155h119q92 0 119 22q25 22 42 104l62 290l-232 499q-29 63 -60 97q-38 43 -108 43h-67zM795 1476l334 248q73 54 119 54q34 0 56 -25q18 -22 18 -51q0 -45 -41 -81q-30 -26 -71 -40l-304 -105h-111z" />
<glyph unicode="&#xde;" horiz-adv-x="1393" vert-adv-y="2457" d="M-94 0l33 155h79q92 0 119 23q25 21 43 103l170 803q11 51 11 70q0 29 -19 42q-20 14 -100 14h-79l33 155h732l-33 -155h-96q-92 0 -119 -23q-25 -21 -43 -103l-2 -13h216q201 0 306 -41q179 -71 179 -253q0 -95 -41 -184q-78 -171 -259 -233q-114 -38 -371 -38h-190 l-8 -41q-11 -51 -11 -70q0 -29 19 -42q20 -14 100 -14h96l-33 -155h-732zM508 477h135q167 0 238 31q92 39 133 139q21 53 21 108q0 107 -93 141q-55 20 -221 20h-119z" />
<glyph unicode="&#xdf;" horiz-adv-x="1281" vert-adv-y="2457" d="M-104 0l29 136h53q75 0 103 25q24 20 40 97l149 703q37 172 115 263q151 176 425 176q183 0 290 -72q98 -66 98 -178q0 -85 -51 -152q-43 -58 -102 -89q-65 -34 -158 -66q93 -28 134 -57q111 -81 111 -230q0 -120 -48 -246q-68 -178 -197 -274q-96 -71 -220 -71 q-210 0 -210 178q0 64 30 204h150q-21 -115 -21 -158q0 -66 60 -66q67 0 100 82q28 69 49 156q34 142 34 228q0 85 -61 126q-55 38 -210 38l31 145q119 5 168 21q83 29 122 119q19 45 19 91q0 127 -146 127q-115 0 -183 -77q-50 -58 -78 -188l-210 -991h-415z" />
<glyph unicode="&#xe0;" horiz-adv-x="1159" vert-adv-y="2457" d="M-43 168q0 82 45 157q64 108 230 168q75 28 246 68q108 25 149 58q68 52 68 149q0 118 -184 118q-111 0 -202 -61q68 -2 92 -27q21 -20 21 -57q0 -61 -44 -106q-50 -52 -129 -52q-77 0 -113 51q-19 28 -19 69q0 117 116 201q128 92 336 92q146 0 245 -39q52 -20 86 -66 q33 -45 33 -97q0 -47 -25 -163l-90 -426q-4 -18 -4 -37q0 -37 39 -37q34 0 58 49q22 46 50 179h124q-45 -198 -86 -263q-84 -132 -250 -132q-96 0 -144 43q-33 29 -45 109q-82 -76 -140 -105q-98 -48 -222 -48q-126 0 -190 70q-51 55 -51 135zM239 219q0 -85 104 -85 q92 0 165 62q77 65 104 190l25 117q-80 -37 -223 -89q-82 -30 -128 -81q-47 -52 -47 -114zM346 1364q0 55 46 96q39 34 88 34q40 0 74 -25q24 -19 61 -69l214 -294h-113l-290 161q-80 45 -80 97z" />
<glyph unicode="&#xe1;" horiz-adv-x="1159" vert-adv-y="2457" d="M-43 168q0 82 45 157q64 108 230 168q75 28 246 68q108 25 149 58q68 52 68 149q0 118 -184 118q-111 0 -202 -61q68 -2 92 -27q21 -20 21 -57q0 -61 -44 -106q-50 -52 -129 -52q-77 0 -113 51q-19 28 -19 69q0 117 116 201q128 92 336 92q146 0 245 -39q52 -20 86 -66 q33 -45 33 -97q0 -47 -25 -163l-90 -426q-4 -18 -4 -37q0 -37 39 -37q34 0 58 49q22 46 50 179h124q-45 -198 -86 -263q-84 -132 -250 -132q-96 0 -144 43q-33 29 -45 109q-82 -76 -140 -105q-98 -48 -222 -48q-126 0 -190 70q-51 55 -51 135zM239 219q0 -85 104 -85 q92 0 165 62q77 65 104 190l25 117q-80 -37 -223 -89q-82 -30 -128 -81q-47 -52 -47 -114zM461 1106l339 294q109 94 175 94q31 0 53 -14q35 -23 35 -71q0 -83 -130 -142l-359 -161h-113z" />
<glyph unicode="&#xe2;" horiz-adv-x="1159" vert-adv-y="2457" d="M-43 168q0 82 45 157q64 108 230 168q75 28 246 68q108 25 149 58q68 52 68 149q0 118 -184 118q-111 0 -202 -61q68 -2 92 -27q21 -20 21 -57q0 -61 -44 -106q-50 -52 -129 -52q-77 0 -113 51q-19 28 -19 69q0 117 116 201q128 92 336 92q146 0 245 -39q52 -20 86 -66 q33 -45 33 -97q0 -47 -25 -163l-90 -426q-4 -18 -4 -37q0 -37 39 -37q34 0 58 49q22 46 50 179h124q-45 -198 -86 -263q-84 -132 -250 -132q-96 0 -144 43q-33 29 -45 109q-82 -76 -140 -105q-98 -48 -222 -48q-126 0 -190 70q-51 55 -51 135zM239 219q0 -85 104 -85 q92 0 165 62q77 65 104 190l25 117q-80 -37 -223 -89q-82 -30 -128 -81q-47 -52 -47 -114zM316 1106l306 368h184l148 -368h-100l-183 170l-255 -170h-100z" />
<glyph unicode="&#xe3;" horiz-adv-x="1159" vert-adv-y="2457" d="M-43 168q0 82 45 157q64 108 230 168q75 28 246 68q108 25 149 58q68 52 68 149q0 118 -184 118q-111 0 -202 -61q68 -2 92 -27q21 -20 21 -57q0 -61 -44 -106q-50 -52 -129 -52q-77 0 -113 51q-19 28 -19 69q0 117 116 201q128 92 336 92q146 0 245 -39q52 -20 86 -66 q33 -45 33 -97q0 -47 -25 -163l-90 -426q-4 -18 -4 -37q0 -37 39 -37q34 0 58 49q22 46 50 179h124q-45 -198 -86 -263q-84 -132 -250 -132q-96 0 -144 43q-33 29 -45 109q-82 -76 -140 -105q-98 -48 -222 -48q-126 0 -190 70q-51 55 -51 135zM239 219q0 -85 104 -85 q92 0 165 62q77 65 104 190l25 117q-80 -37 -223 -89q-82 -30 -128 -81q-47 -52 -47 -114zM313 1136q54 120 94 167q82 97 192 97q38 0 77 -11l113 -31q20 -6 45 -6q47 0 78 37q12 15 34 53h82q-37 -82 -62.5 -123t-61.5 -74q-69 -66 -160 -66q-34 0 -64 9l-110 31 q-33 10 -61 10q-68 0 -113 -93h-83z" />
<glyph unicode="&#xe4;" horiz-adv-x="1159" vert-adv-y="2457" d="M-43 168q0 82 45 157q64 108 230 168q75 28 246 68q108 25 149 58q68 52 68 149q0 118 -184 118q-111 0 -202 -61q68 -2 92 -27q21 -20 21 -57q0 -61 -44 -106q-50 -52 -129 -52q-77 0 -113 51q-19 28 -19 69q0 117 116 201q128 92 336 92q146 0 245 -39q52 -20 86 -66 q33 -45 33 -97q0 -47 -25 -163l-90 -426q-4 -18 -4 -37q0 -37 39 -37q34 0 58 49q22 46 50 179h124q-45 -198 -86 -263q-84 -132 -250 -132q-96 0 -144 43q-33 29 -45 109q-82 -76 -140 -105q-98 -48 -222 -48q-126 0 -190 70q-51 55 -51 135zM239 219q0 -85 104 -85 q92 0 165 62q77 65 104 190l25 117q-80 -37 -223 -89q-82 -30 -128 -81q-47 -52 -47 -114zM318 1262q0 42 23 79q18 28 44 48q56 43 116 43q54 0 86 -43q22 -30 22 -72q0 -50 -32 -94q-54 -76 -144 -76q-58 0 -91 41q-24 30 -24 74zM705 1262q0 42 23 79q18 28 44 48 q56 43 116 43q54 0 86 -43q22 -30 22 -72q0 -50 -32 -94q-55 -76 -145 -76q-57 0 -90 41q-24 30 -24 74z" />
<glyph unicode="&#xe5;" horiz-adv-x="1159" vert-adv-y="2457" d="M-43 168q0 82 45 157q64 108 230 168q75 28 246 68q108 25 149 58q68 52 68 149q0 118 -184 118q-111 0 -202 -61q68 -2 92 -27q21 -20 21 -57q0 -61 -44 -106q-50 -52 -129 -52q-77 0 -113 51q-19 28 -19 69q0 117 116 201q128 92 336 92q146 0 245 -39q52 -20 86 -66 q33 -45 33 -97q0 -47 -25 -163l-90 -426q-5 -23 -5 -39q0 -35 38 -35q36 0 60 49q22 46 50 179h124q-45 -198 -86 -263q-84 -132 -250 -132q-96 0 -144 43q-33 29 -45 109q-82 -76 -140 -105q-98 -48 -222 -48q-126 0 -190 70q-51 55 -51 135zM239 219q0 -85 104 -85 q92 0 165 62q77 65 104 190l25 117q-80 -37 -223 -89q-82 -30 -128 -81q-47 -52 -47 -114zM415 1278q0 79 43 149q31 51 78 89q99 77 212 77q101 0 161 -77q44 -56 44 -134q0 -91 -61 -176q-55 -75 -139 -113q-64 -29 -132 -29q-105 0 -164 77q-42 55 -42 137zM548 1301 q0 -40 21 -68q29 -38 83 -38q58 0 105 38q62 51 62 122q0 39 -22 67q-28 37 -81 40q-68 4 -125 -56q-43 -45 -43 -105z" />
<glyph unicode="&#xe6;" horiz-adv-x="1729" vert-adv-y="2457" d="M-45 169q0 94 60 178q68 96 245 152q90 28 256 63q113 23 154 56q66 51 66 138q0 131 -199 131q-72 0 -131 -20q-41 -14 -102 -42q69 -2 93 -27q21 -21 21 -57q0 -61 -44 -106q-50 -52 -128 -52t-114 51q-19 28 -19 69q0 120 120 203q130 90 341 90q126 0 222 -37 q53 -21 129 -82q89 58 148 83q83 36 194 36q162 0 254 -90t92 -230q0 -93 -21 -216h-686q-15 -87 -15 -144q0 -90 57 -143q50 -46 145 -46q106 0 178 51q62 44 119 165h171q-51 -128 -99 -185q-164 -193 -417 -193q-162 0 -254 73q-51 40 -112 143q-92 -96 -150 -132 q-140 -88 -304 -88q-138 0 -213 68q-57 51 -57 140zM235 223q0 -97 117 -97q116 0 198 70q78 65 104 190l25 117q-84 -36 -235 -87q-105 -36 -149 -72q-60 -49 -60 -121zM945 603h408q5 59 5 102q0 156 -145 156q-98 0 -164 -65q-38 -38 -60 -85q-22 -44 -44 -108z" />
<glyph unicode="&#xe7;" horiz-adv-x="1047" vert-adv-y="2457" d="M2 338q0 142 59 277q84 192 275 298q149 83 324 83q185 0 280 -94q62 -62 62 -151t-55 -155q-58 -70 -147 -70q-70 0 -103 42q-20 25 -20 63q0 56 38 101q35 43 109 57q-46 40 -75 54q-39 19 -101 19q-172 0 -273 -168q-38 -63 -65 -155q-30 -104 -30 -193 q0 -199 200 -199q120 0 196 85q47 52 90 167h157q-44 -147 -95 -223q-141 -209 -428 -212l-17 -79q48 7 85 7q76 0 112 -55q20 -31 20 -74q0 -92 -71 -159q-72 -68 -194 -68q-131 0 -308 92l69 101q111 -79 216 -79q52 0 83 32q22 25 22 65q0 24 -13 37q-22 21 -59 21 q-27 0 -67 -8l37 173q-130 21 -202 89q-111 105 -111 279z" />
<glyph unicode="&#xe8;" horiz-adv-x="1088" vert-adv-y="2457" d="M4 347q0 141 61 275q90 198 272 300q133 74 298 74q181 0 272 -89q92 -91 92 -232q0 -90 -22 -215h-685q-11 -78 -11 -136q0 -98 60 -155q45 -42 135 -42q111 0 183 52q58 42 116 164h171q-53 -134 -107 -195q-164 -184 -434 -184q-204 0 -310 118q-91 103 -91 265z M331 603h407q6 61 6 104q0 154 -139 154q-87 0 -157 -64q-43 -39 -67 -84q-24 -44 -50 -110zM361 1364q0 55 46 96q39 34 88 34q39 0 73 -26q25 -18 61 -68l214 -294h-112l-290 161q-80 45 -80 97z" />
<glyph unicode="&#xe9;" horiz-adv-x="1088" vert-adv-y="2457" d="M4 347q0 141 61 275q90 198 272 300q133 74 298 74q181 0 272 -89q92 -91 92 -232q0 -90 -22 -215h-685q-11 -78 -11 -136q0 -98 60 -155q45 -42 135 -42q111 0 183 52q58 42 116 164h171q-53 -134 -107 -195q-164 -184 -434 -184q-204 0 -310 118q-91 103 -91 265z M331 603h407q6 61 6 104q0 154 -139 154q-87 0 -157 -64q-43 -39 -67 -84q-24 -44 -50 -110zM476 1106l339 294q108 94 175 94q30 0 53 -14q35 -23 35 -71q0 -83 -131 -142l-358 -161h-113z" />
<glyph unicode="&#xea;" horiz-adv-x="1088" vert-adv-y="2457" d="M4 347q0 141 61 275q90 198 272 300q133 74 298 74q181 0 272 -89q92 -91 92 -232q0 -90 -22 -215h-685q-11 -78 -11 -136q0 -98 60 -155q45 -42 135 -42q111 0 183 52q58 42 116 164h171q-53 -134 -107 -195q-164 -184 -434 -184q-204 0 -310 118q-91 103 -91 265z M331 603h407q6 61 6 104q0 154 -139 154q-87 0 -157 -64q-43 -39 -67 -84q-24 -44 -50 -110zM351 1106l305 368h184l149 -368h-100l-183 170l-256 -170h-99z" />
<glyph unicode="&#xeb;" horiz-adv-x="1088" vert-adv-y="2457" d="M4 347q0 141 61 275q90 198 272 300q133 74 298 74q181 0 272 -89q92 -91 92 -232q0 -90 -22 -215h-685q-11 -78 -11 -136q0 -98 60 -155q45 -42 135 -42q111 0 183 52q58 42 116 164h171q-53 -134 -107 -195q-164 -184 -434 -184q-204 0 -310 118q-91 103 -91 265z M331 603h407q6 61 6 104q0 154 -139 154q-87 0 -157 -64q-43 -39 -67 -84q-24 -44 -50 -110zM335 1262q0 42 23 79q17 28 44 48q56 43 116 43q53 0 85 -43q22 -30 22 -71q0 -51 -31 -95q-55 -76 -145 -76q-57 0 -90 41q-24 30 -24 74zM722 1262q0 42 23 79q17 28 44 48 q56 43 116 43q53 0 85 -43q22 -29 22 -72q0 -50 -31 -94q-55 -76 -145 -76q-57 0 -90 41q-24 30 -24 74z" />
<glyph unicode="&#xec;" horiz-adv-x="712" vert-adv-y="2457" d="M-94 0l29 137h74q74 0 103 25q23 20 40 96l94 445q9 41 9 66q0 21 -7 30q-22 25 -93 25h-74l29 137h439l-149 -703q-9 -43 -9 -66q0 -21 7 -30q22 -25 94 -25h60l-29 -137h-617zM216 1369q0 37 30 71q37 40 91 40q72 0 106 -91l104 -287h-81l-181 157q-69 59 -69 110z " />
<glyph unicode="&#xed;" horiz-adv-x="712" vert-adv-y="2457" d="M-94 0l29 137h74q74 0 103 25q23 20 40 96l94 445q9 41 9 66q0 21 -7 30q-22 25 -93 25h-74l29 137h439l-149 -703q-9 -43 -9 -66q0 -21 7 -30q22 -25 94 -25h60l-29 -137h-617zM327 1102l227 287q72 91 145 91q43 0 66 -27q15 -18 15 -44q0 -73 -123 -150l-248 -157h-82 z" />
<glyph unicode="&#xee;" horiz-adv-x="712" vert-adv-y="2457" d="M-94 0l29 137h74q74 0 103 25q23 20 40 96l94 445q9 41 9 66q0 21 -7 30q-22 25 -93 25h-74l29 137h439l-149 -703q-9 -43 -9 -66q0 -21 7 -30q22 -25 94 -25h60l-29 -137h-617zM138 1101l269 363h183l115 -363h-95l-148 189l-229 -189h-95z" />
<glyph unicode="&#xef;" horiz-adv-x="712" vert-adv-y="2457" d="M-94 0l29 137h74q74 0 103 25q23 20 40 96l94 445q9 41 9 66q0 21 -7 30q-22 25 -93 25h-74l29 137h439l-149 -703q-9 -43 -9 -66q0 -21 7 -30q22 -25 94 -25h60l-29 -137h-617zM136 1263q0 41 23 78q17 28 44 48q56 43 115 43q54 0 86 -43q22 -29 22 -71q0 -51 -31 -95 q-55 -76 -145 -76q-57 0 -90 41q-24 30 -24 75zM503 1263q0 41 23 78q18 28 44 48q56 43 116 43q53 0 85 -43q22 -30 22 -71q0 -51 -31 -95q-55 -76 -145 -76q-57 0 -90 41q-24 30 -24 75z" />
<glyph unicode="&#xf0;" horiz-adv-x="1204" vert-adv-y="2457" d="M6 347q0 133 54 262q79 191 271 301q146 84 320 84q63 0 121 -16q-14 38 -67 158l-174 -66l-28 108l162 59q-37 75 -67 128h161q27 -32 54 -63l201 71l28 -108l-168 -60q98 -150 151 -256q94 -184 94 -339q0 -133 -53 -258q-83 -193 -271 -301q-149 -86 -342 -86 q-237 0 -358 136q-89 101 -89 246zM280 314q0 -205 203 -205q175 0 267 157q43 72 70 182q26 102 26 198q0 207 -203 207q-175 0 -267 -157q-42 -71 -70 -182q-26 -103 -26 -200z" />
<glyph unicode="&#xf1;" horiz-adv-x="1332" vert-adv-y="2457" d="M-94 0l29 137h66q75 0 104 25q23 20 39 96l94 445q10 45 10 66q0 22 -7 30q-22 25 -94 25h-66l29 137h428l-36 -169q117 110 188 147q101 53 201 53q105 0 177 -51q67 -48 67 -137q0 -70 -21 -167l-80 -379q-10 -47 -10 -67t8 -29q21 -25 93 -25h58l-29 -137h-578l29 137 h41q75 0 104 25q23 20 39 96l81 379q14 68 14 100q0 43 -37 72q-33 26 -85 26q-116 0 -214 -100q-50 -52 -75 -115q-16 -39 -31 -113l-53 -249q-9 -41 -9 -66q0 -22 7 -30q22 -25 93 -25h41l-29 -137h-586zM438 1136q54 120 93 167q83 97 193 97q37 0 76 -11l114 -31 q20 -6 45 -6q46 0 77 37q13 15 34 53h83q-37 -82 -63 -123t-61 -74q-70 -66 -160 -66q-35 0 -65 9l-110 31q-33 10 -60 10q-69 0 -113 -93h-83z" />
<glyph unicode="&#xf2;" horiz-adv-x="1200" vert-adv-y="2457" d="M1 351q0 133 56 262q84 193 276 300q148 83 336 83q230 0 350 -130q94 -102 94 -256q0 -134 -55 -262q-84 -193 -277 -301q-146 -82 -335 -82q-231 0 -351 130q-94 103 -94 256zM275 314q0 -205 203 -205q174 0 266 157q43 72 70 181q26 103 26 199q0 206 -202 206 q-176 0 -268 -157q-41 -71 -69 -181q-26 -102 -26 -200zM431 1364q0 55 46 96q39 34 88 34q39 0 73 -26q25 -18 62 -68l213 -294h-112l-290 161q-80 45 -80 97z" />
<glyph unicode="&#xf3;" horiz-adv-x="1200" vert-adv-y="2457" d="M1 351q0 133 56 262q84 193 276 300q148 83 336 83q230 0 350 -130q94 -102 94 -256q0 -134 -55 -262q-84 -193 -277 -301q-146 -82 -335 -82q-231 0 -351 130q-94 103 -94 256zM275 314q0 -205 203 -205q174 0 266 157q43 72 70 181q26 103 26 199q0 206 -202 206 q-176 0 -268 -157q-41 -71 -69 -181q-26 -102 -26 -200zM525 1106l339 294q108 94 175 94q30 0 53 -14q35 -23 35 -71q0 -83 -131 -142l-358 -161h-113z" />
<glyph unicode="&#xf4;" horiz-adv-x="1200" vert-adv-y="2457" d="M1 351q0 133 56 262q84 193 276 300q148 83 336 83q230 0 350 -130q94 -102 94 -256q0 -134 -55 -262q-84 -193 -277 -301q-146 -82 -335 -82q-231 0 -351 130q-94 103 -94 256zM275 314q0 -205 203 -205q174 0 266 157q43 72 70 181q26 103 26 199q0 206 -202 206 q-176 0 -268 -157q-41 -71 -69 -181q-26 -102 -26 -200zM386 1106l305 368h184l148 -368h-99l-183 170l-256 -170h-99z" />
<glyph unicode="&#xf5;" horiz-adv-x="1200" vert-adv-y="2457" d="M1 351q0 133 56 262q84 193 276 300q148 83 336 83q230 0 350 -130q94 -102 94 -256q0 -134 -55 -262q-84 -193 -277 -301q-146 -82 -335 -82q-231 0 -351 130q-94 103 -94 256zM275 314q0 -205 203 -205q174 0 266 157q43 72 70 181q26 103 26 199q0 206 -202 206 q-176 0 -268 -157q-41 -71 -69 -181q-26 -102 -26 -200zM372 1136q54 120 93 167q83 97 193 97q37 0 76 -11l114 -31q20 -6 45 -6q46 0 77 37q13 15 34 53h83q-37 -82 -63 -123t-61 -74q-70 -66 -160 -66q-35 0 -65 9l-110 31q-33 10 -60 10q-69 0 -113 -93h-83z" />
<glyph unicode="&#xf6;" horiz-adv-x="1200" vert-adv-y="2457" d="M4 351q0 133 56 262q84 193 276 300q148 83 336 83q230 0 350 -130q94 -102 94 -256q0 -134 -55 -262q-84 -193 -277 -301q-146 -82 -335 -82q-231 0 -351 130q-94 103 -94 256zM278 314q0 -205 203 -205q174 0 266 157q43 72 70 181q26 103 26 199q0 206 -202 206 q-176 0 -268 -157q-41 -71 -69 -181q-26 -102 -26 -200zM405 1262q0 42 23 79q18 28 44 48q56 43 116 43q54 0 86 -43q22 -29 22 -71q0 -51 -31 -95q-55 -76 -145 -76q-58 0 -91 41q-24 30 -24 74zM792 1262q0 43 23 79q17 28 44 48q56 43 115 43q54 0 86 -43q22 -30 22 -71 q0 -51 -31 -95q-55 -76 -145 -76q-58 0 -90 41q-24 30 -24 74z" />
<glyph unicode="&#xf7;" horiz-adv-x="1124" vert-adv-y="2457" d="M20 489v113h1077v-113h-1077zM432 130q0 55 42 93q35 33 87 33q54 0 91 -42q33 -36 33 -85q0 -56 -42 -93q-36 -33 -85 -33q-56 0 -93 42q-33 36 -33 85zM432 949q0 55 42 93q36 33 87 33q53 0 91 -42q33 -36 33 -84q0 -57 -42 -94q-36 -33 -85 -33q-56 0 -93 42 q-33 36 -33 85z" />
<glyph unicode="&#xf8;" horiz-adv-x="1200" vert-adv-y="2457" d="M-91 17l151 125q-59 131 -59 211q0 132 59 265q83 190 273 296q148 82 326 82q117 0 195 -28q44 -16 126 -64l156 129l70 -85l-154 -126q63 -126 63 -207q0 -132 -58 -267q-82 -192 -276 -301q-146 -82 -326 -82q-130 0 -206 30q-41 16 -117 64l-158 -131zM274 319 l539 447q-42 43 -71 60q-43 26 -111 26q-123 0 -208 -87q-81 -81 -123 -251q-22 -90 -26 -195zM299 197q44 -47 74 -64q41 -24 109 -24q193 0 284 199q71 156 75 337z" />
<glyph unicode="&#xf9;" horiz-adv-x="1322" vert-adv-y="2457" d="M81 824l29 137h409l-136 -638q-15 -72 -15 -99q0 -43 37 -72q33 -26 86 -26q115 0 213 100q51 53 76 118q17 45 31 109l53 249q9 43 9 67q0 21 -7 30q-22 25 -93 25h-95l30 137h456l-150 -703q-9 -44 -9 -66t8 -30q21 -25 93 -25h53l-29 -137h-415l36 169 q-118 -110 -188 -147q-101 -53 -202 -53q-105 0 -176 51q-68 48 -68 136q0 67 21 167l81 379q9 43 9 67q0 21 -7 30q-22 25 -93 25h-47zM428 1364q0 55 46 96q39 34 88 34q39 0 73 -26q25 -18 62 -68l214 -294h-113l-290 161q-80 45 -80 97z" />
<glyph unicode="&#xfa;" horiz-adv-x="1322" vert-adv-y="2457" d="M81 824l29 137h409l-136 -638q-15 -72 -15 -99q0 -43 37 -72q33 -26 86 -26q115 0 213 100q51 53 76 118q17 45 31 109l53 249q9 43 9 67q0 21 -7 30q-22 25 -93 25h-95l30 137h456l-150 -703q-9 -44 -9 -66t8 -30q21 -25 93 -25h53l-29 -137h-415l36 169 q-118 -110 -188 -147q-101 -53 -202 -53q-105 0 -176 51q-68 48 -68 136q0 67 21 167l81 379q9 43 9 67q0 21 -7 30q-22 25 -93 25h-47zM582 1106l339 294q109 94 175 94q31 0 53 -14q35 -23 35 -71q0 -83 -131 -142l-358 -161h-113z" />
<glyph unicode="&#xfb;" horiz-adv-x="1322" vert-adv-y="2457" d="M81 824l29 137h409l-136 -638q-15 -72 -15 -99q0 -43 37 -72q33 -26 86 -26q115 0 213 100q51 53 76 118q17 45 31 109l53 249q9 43 9 67q0 21 -7 30q-22 25 -93 25h-95l30 137h456l-150 -703q-9 -44 -9 -66t8 -30q21 -25 93 -25h53l-29 -137h-415l36 169 q-118 -110 -188 -147q-101 -53 -202 -53q-105 0 -176 51q-68 48 -68 136q0 67 21 167l81 379q9 43 9 67q0 21 -7 30q-22 25 -93 25h-47zM432 1106l306 368h183l149 -368h-100l-183 170l-255 -170h-100z" />
<glyph unicode="&#xfc;" horiz-adv-x="1322" vert-adv-y="2457" d="M81 824l29 137h409l-136 -638q-15 -72 -15 -99q0 -43 37 -72q33 -26 86 -26q115 0 213 100q51 53 76 118q17 45 31 109l53 249q9 43 9 67q0 21 -7 30q-22 25 -93 25h-95l30 137h456l-150 -703q-9 -44 -9 -66t8 -30q21 -25 93 -25h53l-29 -137h-415l36 169 q-118 -110 -188 -147q-101 -53 -202 -53q-105 0 -176 51q-68 48 -68 136q0 67 21 167l81 379q9 43 9 67q0 21 -7 30q-22 25 -93 25h-47zM452 1262q0 42 23 79q18 28 44 48q56 43 116 43q53 0 85 -43q22 -29 22 -72q0 -50 -31 -94q-55 -76 -144 -76q-58 0 -91 41 q-24 30 -24 74zM839 1262q0 42 23 79q18 28 44 48q56 43 116 43q53 0 85 -43q22 -29 22 -72q0 -50 -31 -94q-55 -76 -145 -76q-57 0 -90 41q-24 30 -24 74z" />
<glyph unicode="&#xfd;" horiz-adv-x="1190" vert-adv-y="2457" d="M-199 -232q0 75 42 138q63 94 170 94q65 0 95 -41q20 -27 20 -64q0 -62 -43 -106q-30 -30 -65 -38q-28 -7 -71 -8q22 -28 37 -37q20 -12 54 -12q104 0 198 109q55 65 138 197l-165 701q-15 64 -38 90q-30 33 -87 33h-61l29 137h589l-29 -137h-70q-82 0 -82 -66 q0 -15 3 -28l95 -444l257 425q29 47 29 77q0 36 -81 36h-55l29 137h491l-29 -137h-45q-49 0 -88 -32q-45 -36 -93 -114l-347 -564q-187 -304 -295 -413q-74 -74 -141 -106q-71 -33 -156 -33q-121 0 -185 72q-50 55 -50 134zM506 1106l338 294q109 94 175 94q31 0 53 -14 q35 -23 35 -71q0 -83 -130 -142l-359 -161h-112z" />
<glyph unicode="&#xfe;" vert-adv-y="2457" d="M-218 -438l29 137h61q75 0 103 25q24 20 40 96l273 1288q9 40 9 66q0 22 -7 30q-22 25 -93 25h-51l29 136h413l-122 -571q89 112 161 149q90 47 205 47q159 0 244 -87t85 -244q0 -149 -53 -303q-70 -200 -212 -303q-123 -88 -282 -88q-133 0 -203 60q-44 37 -79 136 l-72 -341q-10 -45 -10 -66t8 -30q22 -25 93 -25h91l-29 -137h-631zM384 339q0 -94 56 -151q47 -47 130 -47q141 0 226 146q36 62 62 166q25 101 25 188q0 95 -54 146q-42 39 -115 39q-153 0 -247 -155q-35 -60 -60 -159q-23 -93 -23 -173z" />
<glyph unicode="&#xff;" horiz-adv-x="1190" vert-adv-y="2457" d="M-199 -232q0 75 42 138q63 94 170 94q65 0 95 -41q20 -27 20 -64q0 -62 -43 -106q-30 -30 -65 -38q-28 -7 -71 -8q22 -28 37 -37q20 -12 54 -12q104 0 198 109q55 65 138 197l-165 701q-15 64 -38 90q-30 33 -87 33h-61l29 137h589l-29 -137h-70q-82 0 -82 -66 q0 -15 3 -28l95 -444l257 425q29 47 29 77q0 36 -81 36h-55l29 137h491l-29 -137h-45q-49 0 -88 -32q-45 -36 -93 -114l-347 -564q-187 -304 -295 -413q-74 -74 -141 -106q-71 -33 -156 -33q-121 0 -185 72q-50 55 -50 134zM386 1262q0 42 23 79q17 28 44 48q56 43 115 43 q54 0 86 -43q22 -29 22 -71q0 -51 -31 -95q-55 -76 -145 -76q-57 0 -90 41q-24 30 -24 74zM773 1262q0 42 23 79q17 28 44 48q56 43 116 43q53 0 85 -43q22 -29 22 -72q0 -50 -31 -94q-55 -76 -145 -76q-57 0 -90 41q-24 30 -24 74z" />
<glyph unicode="&#x152;" horiz-adv-x="2532" vert-adv-y="2457" d="M52 504q0 186 77 362q115 267 380 416q214 121 470 121l644 -38h903l-115 -542h-155q19 113 19 172q0 131 -60 173q-59 42 -236 42h-327l-89 -419h77q147 0 193 59q27 34 76 189h155l-145 -683h-155q15 106 15 157q0 78 -42 104q-32 19 -128 19h-79l-102 -481h356 q145 0 215 43q81 50 143 199q26 63 62 182h155l-123 -579h-903q-109 0 -321 -20q-200 -18 -341 -18q-322 0 -492 189q-127 142 -127 353zM370 484q0 -367 415 -367q112 0 215 19q115 22 139 58q14 22 28 87l171 804q11 51 11 69q0 35 -36 52q-43 20 -143 33q-69 9 -144 9 q-283 0 -442 -166q-112 -117 -170 -311q-44 -146 -44 -287z" />
<glyph unicode="&#x153;" horiz-adv-x="1871" vert-adv-y="2457" d="M4 351q0 134 56 262q84 194 276 300q149 83 321 83q154 0 271 -67q43 -25 103 -79q100 73 166 100q108 46 231 46q174 0 265 -89q92 -91 92 -231q0 -92 -21 -216h-685q-16 -84 -16 -142q0 -89 57 -143q53 -50 138 -50q107 0 185 53q61 42 119 165h171q-51 -128 -99 -185 q-164 -193 -408 -193q-153 0 -250 66q-45 31 -96 106q-91 -79 -163 -113q-126 -59 -277 -59q-222 0 -342 130q-94 103 -94 256zM277 314q0 -205 203 -205q175 0 267 157q43 72 70 181q26 103 26 198q0 207 -203 207q-175 0 -267 -157q-42 -71 -70 -182q-26 -101 -26 -199z M1117 603h408q5 59 5 103q0 87 -44 125q-33 30 -104 30q-98 0 -161 -63q-53 -54 -104 -195z" />
<glyph unicode="&#x178;" horiz-adv-x="1495" vert-adv-y="2457" d="M112 1210l33 155h723l-33 -155h-101q-58 0 -78 -14q-21 -14 -21 -42q0 -22 16 -53l160 -321l315 332q40 42 40 66q0 32 -65 32h-120l33 155h632l-33 -155h-46q-59 0 -97 -21q-33 -18 -81 -69l-523 -549l-62 -290q-10 -49 -10 -70q0 -29 18 -42q21 -14 100 -14h119 l-33 -155h-794l33 155h119q92 0 119 22q25 22 42 104l62 290l-232 499q-29 63 -60 97q-38 43 -108 43h-67zM613 1591q0 40 23 76q16 27 42 47q54 42 112 42q51 0 84 -42q24 -31 24 -71q0 -46 -32 -90q-55 -75 -144 -75q-54 0 -86 40q-23 30 -23 73zM995 1591q0 40 22 76 q17 27 43 47q54 42 111 42q52 0 84 -42q24 -30 24 -71q0 -46 -32 -90q-55 -75 -143 -75q-54 0 -86 40q-23 30 -23 73z" />
<glyph unicode="&#x2c6;" horiz-adv-x="1024" vert-adv-y="2457" d="M283 1106l306 368h183l149 -368h-100l-183 170l-255 -170h-100z" />
<glyph unicode="&#x2dc;" horiz-adv-x="1024" vert-adv-y="2457" d="M283 1136q54 120 93 167q83 97 193 97q37 0 76 -11l114 -31q20 -6 45 -6q46 0 77 37q13 15 34 53h83q-46 -101 -76 -142q-87 -121 -208 -121q-35 0 -65 9l-110 31q-33 10 -60 10q-69 0 -113 -93h-83z" />
<glyph unicode="&#x2000;" horiz-adv-x="955" vert-adv-y="0" />
<glyph unicode="&#x2001;" horiz-adv-x="1910" vert-adv-y="0" />
<glyph unicode="&#x2002;" horiz-adv-x="955" vert-adv-y="0" />
<glyph unicode="&#x2003;" horiz-adv-x="1910" vert-adv-y="0" />
<glyph unicode="&#x2004;" horiz-adv-x="636" vert-adv-y="0" />
<glyph unicode="&#x2005;" horiz-adv-x="477" vert-adv-y="0" />
<glyph unicode="&#x2006;" horiz-adv-x="318" vert-adv-y="0" />
<glyph unicode="&#x2007;" horiz-adv-x="318" vert-adv-y="0" />
<glyph unicode="&#x2008;" horiz-adv-x="238" vert-adv-y="0" />
<glyph unicode="&#x2009;" horiz-adv-x="382" vert-adv-y="0" />
<glyph unicode="&#x200a;" horiz-adv-x="106" vert-adv-y="0" />
<glyph unicode="&#x2010;" horiz-adv-x="551" vert-adv-y="2457" d="M-65 378l46 217h551l-46 -217h-551z" />
<glyph unicode="&#x2011;" horiz-adv-x="551" vert-adv-y="2457" d="M-65 378l46 217h551l-46 -217h-551z" />
<glyph unicode="&#x2012;" horiz-adv-x="551" vert-adv-y="2457" d="M-65 378l46 217h551l-46 -217h-551z" />
<glyph unicode="&#x2013;" horiz-adv-x="1140" vert-adv-y="2457" d="M2 402l36 169h1017l-36 -169h-1017z" />
<glyph unicode="&#x2014;" horiz-adv-x="1453" vert-adv-y="2457" d="M-60 402l36 169h1453l-36 -169h-1453z" />
<glyph unicode="&#x2018;" horiz-adv-x="488" vert-adv-y="2457" d="M176 999q0 99 60 193q72 113 208 173q63 28 140 40l-19 -90q-86 -25 -129 -57q-56 -41 -84 -94q-14 -26 -29 -80q55 31 94 31q58 0 84 -40q14 -23 14 -55q0 -65 -45 -114q-54 -61 -141 -61q-68 0 -110 40q-43 42 -43 114z" />
<glyph unicode="&#x2019;" horiz-adv-x="488" vert-adv-y="2457" d="M101 845l19 90q86 25 129 57q56 41 84 94q14 26 29 80q-55 -31 -95 -31q-57 0 -83 40q-14 23 -14 55q0 65 45 114q54 61 141 61q68 0 109 -40q44 -43 44 -114q0 -99 -60 -193q-114 -178 -348 -213z" />
<glyph unicode="&#x201a;" horiz-adv-x="488" vert-adv-y="2457" d="M-141 -293l19 90q86 25 129 57q56 40 84 94q14 26 29 80q-56 -31 -95 -31q-57 0 -83 40q-14 23 -14 55q0 64 45 114q54 61 141 61q68 0 109 -40q44 -43 44 -114q0 -99 -60 -193q-114 -178 -348 -213z" />
<glyph unicode="&#x201c;" horiz-adv-x="976" vert-adv-y="2457" d="M176 999q0 99 60 193q72 113 208 173q63 28 140 40l-19 -90q-86 -25 -129 -57q-56 -41 -84 -94q-14 -26 -29 -80q55 31 94 31q58 0 84 -40q14 -23 14 -55q0 -65 -45 -114q-54 -61 -141 -61q-68 0 -110 40q-43 42 -43 114zM658 999q0 100 60 193q72 113 208 173 q63 28 140 40l-20 -90q-86 -25 -129 -57q-55 -41 -84 -94q-14 -26 -29 -80q56 31 95 31q58 0 84 -40q14 -23 14 -55q0 -65 -45 -114q-55 -61 -141 -61q-68 0 -110 40q-43 42 -43 114z" />
<glyph unicode="&#x201d;" horiz-adv-x="976" vert-adv-y="2457" d="M101 845l19 90q86 25 129 57q56 41 84 94q14 26 29 80q-55 -31 -95 -31q-57 0 -83 40q-14 23 -14 55q0 65 45 114q54 61 141 61q68 0 109 -40q44 -43 44 -114q0 -99 -60 -193q-114 -178 -348 -213zM583 845l19 90q86 25 129 57q55 40 84 94q14 26 29 80q-56 -31 -95 -31 q-58 0 -83 41q-14 22 -14 54q0 65 45 114q55 61 141 61q68 0 109 -40q44 -43 44 -114q0 -99 -60 -193q-72 -113 -208 -173q-63 -28 -140 -40z" />
<glyph unicode="&#x201e;" horiz-adv-x="976" vert-adv-y="2457" d="M-141 -293l19 90q86 25 129 56q55 41 84 95q15 26 29 80q-55 -31 -94 -31q-59 0 -84 40q-14 22 -14 55q0 65 45 114q54 61 141 61q68 0 109 -40q44 -42 44 -114q0 -100 -60 -193q-114 -177 -348 -213zM340 -293l19 90q87 25 129 56q55 41 84 95q14 26 29 80 q-55 -31 -94 -31q-58 0 -84 40q-14 23 -14 55q0 65 45 114q55 61 141 61q68 0 109 -40q44 -42 44 -114q0 -99 -60 -193q-112 -177 -348 -213z" />
<glyph unicode="&#x2022;" horiz-adv-x="1365" vert-adv-y="2457" d="M398 636q0 127 96 230q110 117 256 117q113 0 178 -83q46 -59 46 -142q0 -126 -96 -230q-110 -117 -255 -117q-114 0 -179 83q-46 60 -46 142z" />
<glyph unicode="&#x2026;" horiz-adv-x="1891" vert-adv-y="2457" d="M40 88q0 45 24 84q18 30 46 51q57 44 122 44q58 0 93 -44q24 -31 24 -76q0 -52 -35 -101q-59 -81 -155 -81q-60 0 -94 44q-25 32 -25 79zM671 88q0 45 24 84q26 43 72 69t95 26q58 0 93 -44q24 -31 24 -76q0 -52 -35 -101q-58 -81 -154 -81q-61 0 -95 44q-24 32 -24 79z M1301 88q0 45 24 84q18 30 46 51q57 44 122 44q58 0 93 -44q24 -31 24 -76q0 -52 -35 -101q-59 -81 -155 -81q-60 0 -94 44q-25 32 -25 79z" />
<glyph unicode="&#x202f;" horiz-adv-x="382" vert-adv-y="0" />
<glyph unicode="&#x2039;" horiz-adv-x="590" vert-adv-y="2457" d="M78 463q0 71 158 246l106 117h146l-87 -137q-106 -168 -106 -238q0 -69 20 -166l29 -138h-147l-56 117q-63 133 -63 199z" />
<glyph unicode="&#x203a;" horiz-adv-x="590" vert-adv-y="2457" d="M8 147l87 138q106 167 106 236q0 71 -20 168l-29 137h147l56 -117q64 -134 64 -199q0 -71 -159 -246l-105 -117h-147z" />
<glyph unicode="&#x205f;" horiz-adv-x="477" vert-adv-y="0" />
<glyph unicode="&#x20ac;" horiz-adv-x="1461" vert-adv-y="2457" d="M0 386l98 161h52q7 51 22 112h-114l98 161h77q49 102 139 197q242 256 552 256q119 0 205 -42q46 -22 127 -86l59 111h133l-108 -507h-142q2 50 2 73q0 114 -46 186q-72 113 -227 113q-165 0 -289 -136q-65 -71 -106 -165h499l-98 -161h-455q-14 -55 -22 -112h404 l-98 -161h-311q30 -257 275 -257q101 0 196 46q67 33 172 136l-81 -261q-103 -53 -175.5 -71.5t-176.5 -18.5q-366 0 -481 299q-23 61 -31 127h-149z" />
<glyph unicode="&#x2122;" horiz-adv-x="2047" vert-adv-y="2457" d="M104 1035l70 330h784l-70 -330h-106q12 72 12 103q0 66 -34 97q-33 30 -122 32l-109 -515q-6 -27 -6 -37q0 -14 9 -20q11 -7 57 -7h77l-21 -101h-488l21 101h77q52 0 66 11q13 9 22 53l109 515q-72 -2 -107 -17q-59 -26 -95 -96q-19 -36 -39 -119h-107zM853 587l21 101 h51q52 0 66 10q12 10 22 53l95 450q6 26 6 37q0 14 -9 20q-11 6 -57 6h-51l22 101h393l74 -484l301 484h377l-22 -101h-54q-52 0 -66 -10q-12 -10 -21 -53l-96 -450q-6 -28 -6 -37q0 -14 9 -20q12 -6 57 -6h55l-22 -101h-434l21 101h61q53 0 66 10q12 10 22 53l97 460 l-384 -624h-90l-102 633l-100 -469q-6 -28 -6 -37q0 -14 9 -20q12 -6 57 -6h56l-21 -101h-397z" />
<glyph unicode="&#xe000;" horiz-adv-x="960" vert-adv-y="1920" d="M0 0v960h960v-960h-960z" />
<glyph unicode="&#xfb01;" horiz-adv-x="1332" vert-adv-y="2457" d="M-115 0l29 137h81q74 0 103 25q23 20 40 96l118 558h-198l30 141h198l7 32q34 157 93 235q136 177 464 177q194 0 290 -62q71 -46 71 -130q0 -60 -35 -107q-48 -62 -137 -62q-121 0 -121 93q0 57 59 111q-67 32 -135 32q-117 0 -190 -54q-53 -40 -80 -107 q-15 -36 -29 -102l-12 -56h645l-148 -699q-10 -44 -10 -66q0 -21 8 -30q21 -25 93 -25h80l-29 -137h-600l29 137h41q74 0 103 25q23 20 40 96l92 437q10 45 10 66t-8 30q-21 25 -93 25h-283l-118 -558q-10 -45 -10 -66t8 -30q21 -25 93 -25h40l-29 -137h-600z" />
<glyph unicode="&#xfb02;" horiz-adv-x="1332" vert-adv-y="2457" d="M-94 0l29 137h66q75 0 104 25q23 20 39 96l118 558h-183l30 141h184l6 32q34 157 94 235q136 177 454 177q115 0 275 -36h147l-235 -1107q-10 -47 -10 -67t8 -29q21 -25 93 -25h57l-29 -137h-577l29 137h41q75 0 104 25q23 20 39 96l171 802q-36 35 -36 72q0 58 60 112 q-65 32 -140 32q-146 0 -223 -89q-46 -54 -72 -174l-12 -56h275l-30 -141h-275l-118 -558q-9 -41 -9 -66q0 -22 7 -30q22 -25 93 -25h41l-29 -137h-586z" />
</font>
</defs>
</svg>
